<svg xmlns="http://www.w3.org/2000/svg" viewBox="0 0 400 400" fill="none" stroke="#1a1a1a" stroke-width="2" stroke-linecap="round" stroke-linejoin="round">
  <!-- Girl in the Garden -->
  
  <!-- Sun -->
  <circle id="sun" cx="350" cy="50" r="25" fill="white"/>
  <path id="sun-ray-1" d="M350 15 L350 5" fill="none" stroke-width="3"/>
  <path id="sun-ray-2" d="M375 25 L385 15" fill="none" stroke-width="3"/>
  <path id="sun-ray-3" d="M385 50 L395 50" fill="none" stroke-width="3"/>
  <path id="sun-ray-4" d="M375 75 L385 85" fill="none" stroke-width="3"/>
  
  <!-- Cloud -->
  <ellipse id="cloud-1" cx="280" cy="45" rx="25" ry="15" fill="white"/>
  <ellipse id="cloud-2" cx="260" cy="50" rx="20" ry="12" fill="white"/>
  <ellipse id="cloud-3" cx="300" cy="50" rx="18" ry="10" fill="white"/>
  
  <!-- Ground -->
  <path id="ground" d="M0 350 Q100 340 200 345 Q300 350 400 345" fill="none"/>
  
  <!-- Big flower left -->
  <path id="stem-big-left" d="M60 350 Q65 300 70 250" fill="none" stroke-width="3"/>
  <path id="leaf-big-left-1" d="M65 310 Q45 300 55 280" fill="white"/>
  <path id="leaf-big-left-2" d="M67 320 Q85 310 80 290" fill="white"/>
  <circle id="flower-center-left" cx="70" cy="230" r="15" fill="white"/>
  <ellipse id="petal-left-1" cx="70" cy="205" rx="12" ry="18" fill="white"/>
  <ellipse id="petal-left-2" cx="50" cy="225" rx="12" ry="18" fill="white" transform="rotate(-60 70 230)"/>
  <ellipse id="petal-left-3" cx="55" cy="250" rx="12" ry="18" fill="white" transform="rotate(-120 70 230)"/>
  <ellipse id="petal-left-4" cx="85" cy="255" rx="12" ry="18" fill="white" transform="rotate(120 70 230)"/>
  <ellipse id="petal-left-5" cx="90" cy="225" rx="12" ry="18" fill="white" transform="rotate(60 70 230)"/>
  
  <!-- Tulips right side -->
  <path id="tulip-stem-1" d="M340 360 L340 280" fill="none" stroke-width="2"/>
  <path id="tulip-1" d="M325 280 Q340 250 355 280 Q340 290 325 280" fill="white"/>
  <path id="tulip-stem-2" d="M360 355 L360 300" fill="none" stroke-width="2"/>
  <path id="tulip-2" d="M345 300 Q360 270 375 300 Q360 310 345 300" fill="white"/>
  
  <!-- Girl -->
  <!-- Dress -->
  <path id="dress" d="M160 200 Q140 280 130 350 L270 350 Q260 280 240 200" fill="white"/>
  <path id="dress-pattern-1" d="M150 250 Q200 245 250 250" fill="none" stroke-dasharray="4,4"/>
  <path id="dress-pattern-2" d="M145 300 Q200 295 255 300" fill="none" stroke-dasharray="4,4"/>
  <path id="dress-fold-1" d="M170 220 L165 340" fill="none"/>
  <path id="dress-fold-2" d="M230 220 L235 340" fill="none"/>
  
  <!-- Apron -->
  <path id="apron" d="M165 210 Q160 270 155 320 Q200 330 245 320 Q240 270 235 210" fill="white"/>
  <path id="apron-pocket" d="M180 260 L220 260 L218 290 L182 290 Z" fill="white"/>
  <path id="apron-bow-left" d="M165 210 Q145 200 140 215 Q150 225 165 215" fill="white"/>
  <path id="apron-bow-right" d="M235 210 Q255 200 260 215 Q250 225 235 215" fill="white"/>
  
  <!-- Feet -->
  <ellipse id="foot-left" cx="165" cy="365" rx="18" ry="10" fill="white"/>
  <ellipse id="foot-right" cx="235" cy="365" rx="18" ry="10" fill="white"/>
  
  <!-- Body -->
  <path id="torso" d="M170 140 L160 205 Q200 215 240 205 L230 140" fill="white"/>
  
  <!-- Arms -->
  <path id="arm-left" d="M165 150 Q140 170 125 200 Q120 220 130 240" fill="white"/>
  <path id="arm-right" d="M235 150 Q260 170 280 190 Q290 200 295 210" fill="white"/>
  
  <!-- Hands -->
  <ellipse id="hand-left" cx="130" cy="245" rx="12" ry="10" fill="white"/>
  <ellipse id="hand-right" cx="298" cy="215" rx="12" ry="10" fill="white"/>
  
  <!-- Watering can in right hand -->
  <ellipse id="can-body" cx="310" cy="240" rx="25" ry="20" fill="white"/>
  <path id="can-spout" d="M335 235 Q360 220 370 225" fill="none" stroke-width="3"/>
  <path id="can-handle" d="M295 220 Q290 200 310 195 Q330 200 325 220" fill="none" stroke-width="3"/>
  <ellipse id="can-top" cx="310" cy="225" rx="12" ry="5" fill="white"/>
  
  <!-- Water drops -->
  <path id="drop-1" d="M375 235 Q378 245 375 250 Q372 245 375 235" fill="white"/>
  <path id="drop-2" d="M365 250 Q368 260 365 265 Q362 260 365 250" fill="white"/>
  <path id="drop-3" d="M380 255 Q383 262 380 267 Q377 262 380 255" fill="white"/>
  
  <!-- Flower basket in left hand -->
  <path id="basket" d="M100 240 Q95 260 100 280 L160 280 Q165 260 160 240 Z" fill="white"/>
  <path id="basket-weave-1" d="M105 250 L155 250" fill="none"/>
  <path id="basket-weave-2" d="M102 260 L158 260" fill="none"/>
  <path id="basket-weave-3" d="M100 270 L160 270" fill="none"/>
  <path id="basket-handle" d="M105 240 Q130 210 155 240" fill="none" stroke-width="3"/>
  
  <!-- Flowers in basket -->
  <circle id="basket-flower-1" cx="115" cy="235" r="8" fill="white"/>
  <circle id="basket-flower-2" cx="130" cy="230" r="10" fill="white"/>
  <circle id="basket-flower-3" cx="145" cy="235" r="8" fill="white"/>
  <path id="basket-leaves" d="M120 240 Q125 235 130 240 Q135 235 140 240" fill="white"/>
  
  <!-- Head -->
  <ellipse id="head" cx="200" cy="95" rx="45" ry="50" fill="white"/>
  
  <!-- Hair - wavy with sun hat -->
  <path id="hair-under-hat" d="M155 95 Q160 120 160 145 Q155 170 160 190" fill="white"/>
  <path id="hair-under-hat-2" d="M245 95 Q240 120 240 145 Q245 170 240 190" fill="white"/>
  <path id="hair-strand-1" d="M160 110 Q150 140 155 175" fill="none"/>
  <path id="hair-strand-2" d="M240 110 Q250 140 245 175" fill="none"/>
  
  <!-- Sun hat -->
  <ellipse id="hat-brim" cx="200" cy="60" rx="70" ry="20" fill="white"/>
  <path id="hat-top" d="M155 60 Q150 30 200 20 Q250 30 245 60" fill="white"/>
  <path id="hat-ribbon" d="M155 50 Q200 60 245 50" fill="none" stroke-width="4"/>
  <path id="hat-bow" d="M250 50 Q270 40 275 50 Q270 60 250 55" fill="white"/>
  
  <!-- Face -->
  <!-- Eyes -->
  <ellipse id="eye-left" cx="180" cy="95" rx="8" ry="10" fill="white"/>
  <ellipse id="eye-right" cx="220" cy="95" rx="8" ry="10" fill="white"/>
  <circle id="pupil-left" cx="182" cy="97" r="5" fill="white"/>
  <circle id="pupil-right" cx="222" cy="97" r="5" fill="white"/>
  <circle id="sparkle-left" cx="179" cy="93" r="2" fill="white"/>
  <circle id="sparkle-right" cx="219" cy="93" r="2" fill="white"/>
  
  <!-- Eyebrows -->
  <path id="eyebrow-left" d="M170 82 Q180 78 190 82" fill="none"/>
  <path id="eyebrow-right" d="M210 82 Q220 78 230 82" fill="none"/>
  
  <!-- Nose -->
  <path id="nose" d="M200 100 Q203 108 200 115" fill="none"/>
  
  <!-- Mouth - happy smile -->
  <path id="mouth" d="M188 122 Q200 132 212 122" fill="none"/>
  
  <!-- Blush -->
  <ellipse id="blush-left" cx="168" cy="110" rx="8" ry="4" fill="white" stroke-dasharray="2,2"/>
  <ellipse id="blush-right" cx="232" cy="110" rx="8" ry="4" fill="white" stroke-dasharray="2,2"/>
  
  <!-- Butterfly -->
  <path id="butterfly-wing-left" d="M50 150 Q35 135 45 120 Q60 125 55 145" fill="white"/>
  <path id="butterfly-wing-right" d="M55 145 Q70 125 80 130 Q75 150 60 150" fill="white"/>
  <ellipse id="butterfly-body" cx="55" cy="147" rx="3" ry="10" fill="white"/>
  <path id="butterfly-antenna" d="M53 138 Q48 130 50 125 M57 138 Q62 130 60 125" fill="none"/>
  
  <!-- Small flowers in grass -->
  <circle id="grass-flower-1" cx="180" cy="355" r="5" fill="white"/>
  <circle id="grass-flower-2" cx="100" cy="358" r="4" fill="white"/>
  <circle id="grass-flower-3" cx="300" cy="352" r="5" fill="white"/>
  
  <!-- Grass blades -->
  <path id="grass-1" d="M190 360 Q195 350 200 360" fill="none"/>
  <path id="grass-2" d="M108 362 Q112 355 116 362" fill="none"/>
  <path id="grass-3" d="M308 358 Q312 350 316 358" fill="none"/>
</svg>