<svg viewBox="0 0 400 400" xmlns="http://www.w3.org/2000/svg">
  <!-- Lotus Flower - Asian Meditation Style -->
  
  <!-- Water Surface -->
  <path d="M20 320 Q100 310 200 315 Q300 310 380 320" fill="none" stroke="#1a1a1a" stroke-width="0.8" opacity="0.4"/>
  <path d="M30 335 Q120 325 200 330 Q280 325 370 335" fill="none" stroke="#1a1a1a" stroke-width="0.6" opacity="0.3"/>
  
  <!-- Lily Pads -->
  <ellipse id="lilypad-left" cx="80" cy="350" rx="55" ry="25" fill="white" stroke="#1a1a1a" stroke-width="1.2"/>
  <path d="M80 325 L80 375" fill="none" stroke="#1a1a1a" stroke-width="0.5"/>
  <path d="M55 350 Q80 340 105 350" fill="none" stroke="#1a1a1a" stroke-width="0.5"/>
  <path d="M35 345 L50 350" fill="none" stroke="#1a1a1a" stroke-width="1"/>
  
  <ellipse id="lilypad-right" cx="320" cy="360" rx="50" ry="22" fill="white" stroke="#1a1a1a" stroke-width="1.2"/>
  <path d="M320 338 L320 382" fill="none" stroke="#1a1a1a" stroke-width="0.5"/>
  <path d="M295 360 Q320 350 345 360" fill="none" stroke="#1a1a1a" stroke-width="0.5"/>
  
  <!-- Back Petals (Layer 1) -->
  <path id="petal-back-1" d="M200 180 Q150 150 130 100 Q145 60 175 50 Q210 55 220 100 Q225 150 200 180" fill="white" stroke="#1a1a1a" stroke-width="1.5"/>
  <path id="petal-back-2" d="M200 180 Q250 150 270 100 Q255 60 225 50 Q190 55 180 100 Q175 150 200 180" fill="white" stroke="#1a1a1a" stroke-width="1.5"/>
  <path id="petal-back-3" d="M200 185 Q120 170 80 140 Q70 100 100 75 Q145 70 170 110 Q190 155 200 185" fill="white" stroke="#1a1a1a" stroke-width="1.5"/>
  <path id="petal-back-4" d="M200 185 Q280 170 320 140 Q330 100 300 75 Q255 70 230 110 Q210 155 200 185" fill="white" stroke="#1a1a1a" stroke-width="1.5"/>
  
  <!-- Middle Petals (Layer 2) -->
  <path id="petal-mid-1" d="M200 200 Q165 180 150 140 Q155 105 180 95 Q210 100 215 140 Q218 175 200 200" fill="white" stroke="#1a1a1a" stroke-width="1.3"/>
  <path id="petal-mid-2" d="M200 200 Q235 180 250 140 Q245 105 220 95 Q190 100 185 140 Q182 175 200 200" fill="white" stroke="#1a1a1a" stroke-width="1.3"/>
  <path id="petal-mid-3" d="M200 205 Q145 195 115 165 Q110 130 135 115 Q170 115 185 150 Q195 185 200 205" fill="white" stroke="#1a1a1a" stroke-width="1.3"/>
  <path id="petal-mid-4" d="M200 205 Q255 195 285 165 Q290 130 265 115 Q230 115 215 150 Q205 185 200 205" fill="white" stroke="#1a1a1a" stroke-width="1.3"/>
  
  <!-- Front Petals (Layer 3) -->
  <path id="petal-front-1" d="M200 220 Q175 210 165 175 Q170 150 190 145 Q212 150 215 175 Q213 205 200 220" fill="white" stroke="#1a1a1a" stroke-width="1.2"/>
  <path id="petal-front-2" d="M200 220 Q225 210 235 175 Q230 150 210 145 Q188 150 185 175 Q187 205 200 220" fill="white" stroke="#1a1a1a" stroke-width="1.2"/>
  <path id="petal-front-left" d="M200 225 Q160 220 140 195 Q135 170 155 160 Q180 162 190 185 Q198 210 200 225" fill="white" stroke="#1a1a1a" stroke-width="1.2"/>
  <path id="petal-front-right" d="M200 225 Q240 220 260 195 Q265 170 245 160 Q220 162 210 185 Q202 210 200 225" fill="white" stroke="#1a1a1a" stroke-width="1.2"/>
  
  <!-- Center -->
  <circle id="lotus-center" cx="200" cy="200" r="18" fill="white" stroke="#1a1a1a" stroke-width="1.2"/>
  
  <!-- Center details (stamens) -->
  <circle cx="195" cy="195" r="3" fill="white" stroke="#1a1a1a" stroke-width="0.6"/>
  <circle cx="205" cy="195" r="3" fill="white" stroke="#1a1a1a" stroke-width="0.6"/>
  <circle cx="200" cy="205" r="3" fill="white" stroke="#1a1a1a" stroke-width="0.6"/>
  <circle cx="192" cy="203" r="2" fill="white" stroke="#1a1a1a" stroke-width="0.5"/>
  <circle cx="208" cy="203" r="2" fill="white" stroke="#1a1a1a" stroke-width="0.5"/>
  <circle cx="200" cy="193" r="2" fill="white" stroke="#1a1a1a" stroke-width="0.5"/>
  
  <!-- Stem -->
  <path id="stem" d="M200 230 Q195 260 200 290 Q205 310 200 340" fill="none" stroke="#1a1a1a" stroke-width="3" stroke-linecap="round"/>
  
  <!-- Underwater stem -->
  <path d="M200 340 Q190 360 180 380" fill="none" stroke="#1a1a1a" stroke-width="2" opacity="0.5"/>
  
  <!-- Small bud -->
  <path id="small-bud" d="M280 250 Q275 230 285 215 Q300 220 295 240 Q290 255 280 250" fill="white" stroke="#1a1a1a" stroke-width="1"/>
  <path d="M280 250 Q275 270 280 290 Q283 310 275 330" fill="none" stroke="#1a1a1a" stroke-width="1.5"/>
  
  <!-- Petal vein details -->
  <path d="M175 70 Q180 100 185 130" fill="none" stroke="#1a1a1a" stroke-width="0.4" opacity="0.5"/>
  <path d="M225 70 Q220 100 215 130" fill="none" stroke="#1a1a1a" stroke-width="0.4" opacity="0.5"/>
</svg>