<svg viewBox="0 0 500 500" xmlns="http://www.w3.org/2000/svg">
  <!-- Intricate Floral Mandala - Adult Coloring -->
  
  <!-- Outermost decorative ring -->
  <circle cx="250" cy="250" r="240" fill="white" stroke="#1a1a1a" stroke-width="3"/>
  <circle cx="250" cy="250" r="235" fill="none" stroke="#1a1a1a" stroke-width="1"/>
  <circle cx="250" cy="250" r="230" fill="none" stroke="#1a1a1a" stroke-width="1"/>
  
  <!-- Outer petal layer - 12 large petals -->
  <g id="outer-petals">
    <!-- Petal 1 (0 degrees) -->
    <g transform="translate(250, 250)">
      <path d="M 0 -225 Q 15 -200 20 -175 Q 15 -150 0 -140 Q -15 -150 -20 -175 Q -15 -200 0 -225 Z" fill="white" stroke="#1a1a1a" stroke-width="2"/>
      <path d="M 0 -220 L 0 -145" stroke="#1a1a1a" stroke-width="0.7"/>
      <path d="M -12 -190 Q 0 -185 12 -190" fill="none" stroke="#1a1a1a" stroke-width="0.7"/>
      <path d="M -10 -170 Q 0 -165 10 -170" fill="none" stroke="#1a1a1a" stroke-width="0.7"/>
      <circle cx="0" cy="-180" r="8" fill="none" stroke="#1a1a1a" stroke-width="0.7"/>
    </g>
    
    <!-- Petal 2 (30 degrees) -->
    <g transform="translate(250, 250) rotate(30)">
      <path d="M 0 -225 Q 15 -200 20 -175 Q 15 -150 0 -140 Q -15 -150 -20 -175 Q -15 -200 0 -225 Z" fill="white" stroke="#1a1a1a" stroke-width="2"/>
      <path d="M 0 -220 L 0 -145" stroke="#1a1a1a" stroke-width="0.7"/>
      <path d="M -12 -190 Q 0 -185 12 -190" fill="none" stroke="#1a1a1a" stroke-width="0.7"/>
      <path d="M -10 -170 Q 0 -165 10 -170" fill="none" stroke="#1a1a1a" stroke-width="0.7"/>
      <circle cx="0" cy="-180" r="8" fill="none" stroke="#1a1a1a" stroke-width="0.7"/>
    </g>
    
    <!-- Petal 3 (60 degrees) -->
    <g transform="translate(250, 250) rotate(60)">
      <path d="M 0 -225 Q 15 -200 20 -175 Q 15 -150 0 -140 Q -15 -150 -20 -175 Q -15 -200 0 -225 Z" fill="white" stroke="#1a1a1a" stroke-width="2"/>
      <path d="M 0 -220 L 0 -145" stroke="#1a1a1a" stroke-width="0.7"/>
      <path d="M -12 -190 Q 0 -185 12 -190" fill="none" stroke="#1a1a1a" stroke-width="0.7"/>
      <path d="M -10 -170 Q 0 -165 10 -170" fill="none" stroke="#1a1a1a" stroke-width="0.7"/>
      <circle cx="0" cy="-180" r="8" fill="none" stroke="#1a1a1a" stroke-width="0.7"/>
    </g>
    
    <!-- Petal 4 (90 degrees) -->
    <g transform="translate(250, 250) rotate(90)">
      <path d="M 0 -225 Q 15 -200 20 -175 Q 15 -150 0 -140 Q -15 -150 -20 -175 Q -15 -200 0 -225 Z" fill="white" stroke="#1a1a1a" stroke-width="2"/>
      <path d="M 0 -220 L 0 -145" stroke="#1a1a1a" stroke-width="0.7"/>
      <path d="M -12 -190 Q 0 -185 12 -190" fill="none" stroke="#1a1a1a" stroke-width="0.7"/>
      <path d="M -10 -170 Q 0 -165 10 -170" fill="none" stroke="#1a1a1a" stroke-width="0.7"/>
      <circle cx="0" cy="-180" r="8" fill="none" stroke="#1a1a1a" stroke-width="0.7"/>
    </g>
    
    <!-- Petal 5 (120 degrees) -->
    <g transform="translate(250, 250) rotate(120)">
      <path d="M 0 -225 Q 15 -200 20 -175 Q 15 -150 0 -140 Q -15 -150 -20 -175 Q -15 -200 0 -225 Z" fill="white" stroke="#1a1a1a" stroke-width="2"/>
      <path d="M 0 -220 L 0 -145" stroke="#1a1a1a" stroke-width="0.7"/>
      <path d="M -12 -190 Q 0 -185 12 -190" fill="none" stroke="#1a1a1a" stroke-width="0.7"/>
      <path d="M -10 -170 Q 0 -165 10 -170" fill="none" stroke="#1a1a1a" stroke-width="0.7"/>
      <circle cx="0" cy="-180" r="8" fill="none" stroke="#1a1a1a" stroke-width="0.7"/>
    </g>
    
    <!-- Petal 6 (150 degrees) -->
    <g transform="translate(250, 250) rotate(150)">
      <path d="M 0 -225 Q 15 -200 20 -175 Q 15 -150 0 -140 Q -15 -150 -20 -175 Q -15 -200 0 -225 Z" fill="white" stroke="#1a1a1a" stroke-width="2"/>
      <path d="M 0 -220 L 0 -145" stroke="#1a1a1a" stroke-width="0.7"/>
      <path d="M -12 -190 Q 0 -185 12 -190" fill="none" stroke="#1a1a1a" stroke-width="0.7"/>
      <path d="M -10 -170 Q 0 -165 10 -170" fill="none" stroke="#1a1a1a" stroke-width="0.7"/>
      <circle cx="0" cy="-180" r="8" fill="none" stroke="#1a1a1a" stroke-width="0.7"/>
    </g>
    
    <!-- Petal 7 (180 degrees) -->
    <g transform="translate(250, 250) rotate(180)">
      <path d="M 0 -225 Q 15 -200 20 -175 Q 15 -150 0 -140 Q -15 -150 -20 -175 Q -15 -200 0 -225 Z" fill="white" stroke="#1a1a1a" stroke-width="2"/>
      <path d="M 0 -220 L 0 -145" stroke="#1a1a1a" stroke-width="0.7"/>
      <path d="M -12 -190 Q 0 -185 12 -190" fill="none" stroke="#1a1a1a" stroke-width="0.7"/>
      <path d="M -10 -170 Q 0 -165 10 -170" fill="none" stroke="#1a1a1a" stroke-width="0.7"/>
      <circle cx="0" cy="-180" r="8" fill="none" stroke="#1a1a1a" stroke-width="0.7"/>
    </g>
    
    <!-- Petal 8 (210 degrees) -->
    <g transform="translate(250, 250) rotate(210)">
      <path d="M 0 -225 Q 15 -200 20 -175 Q 15 -150 0 -140 Q -15 -150 -20 -175 Q -15 -200 0 -225 Z" fill="white" stroke="#1a1a1a" stroke-width="2"/>
      <path d="M 0 -220 L 0 -145" stroke="#1a1a1a" stroke-width="0.7"/>
      <path d="M -12 -190 Q 0 -185 12 -190" fill="none" stroke="#1a1a1a" stroke-width="0.7"/>
      <path d="M -10 -170 Q 0 -165 10 -170" fill="none" stroke="#1a1a1a" stroke-width="0.7"/>
      <circle cx="0" cy="-180" r="8" fill="none" stroke="#1a1a1a" stroke-width="0.7"/>
    </g>
    
    <!-- Petal 9 (240 degrees) -->
    <g transform="translate(250, 250) rotate(240)">
      <path d="M 0 -225 Q 15 -200 20 -175 Q 15 -150 0 -140 Q -15 -150 -20 -175 Q -15 -200 0 -225 Z" fill="white" stroke="#1a1a1a" stroke-width="2"/>
      <path d="M 0 -220 L 0 -145" stroke="#1a1a1a" stroke-width="0.7"/>
      <path d="M -12 -190 Q 0 -185 12 -190" fill="none" stroke="#1a1a1a" stroke-width="0.7"/>
      <path d="M -10 -170 Q 0 -165 10 -170" fill="none" stroke="#1a1a1a" stroke-width="0.7"/>
      <circle cx="0" cy="-180" r="8" fill="none" stroke="#1a1a1a" stroke-width="0.7"/>
    </g>
    
    <!-- Petal 10 (270 degrees) -->
    <g transform="translate(250, 250) rotate(270)">
      <path d="M 0 -225 Q 15 -200 20 -175 Q 15 -150 0 -140 Q -15 -150 -20 -175 Q -15 -200 0 -225 Z" fill="white" stroke="#1a1a1a" stroke-width="2"/>
      <path d="M 0 -220 L 0 -145" stroke="#1a1a1a" stroke-width="0.7"/>
      <path d="M -12 -190 Q 0 -185 12 -190" fill="none" stroke="#1a1a1a" stroke-width="0.7"/>
      <path d="M -10 -170 Q 0 -165 10 -170" fill="none" stroke="#1a1a1a" stroke-width="0.7"/>
      <circle cx="0" cy="-180" r="8" fill="none" stroke="#1a1a1a" stroke-width="0.7"/>
    </g>
    
    <!-- Petal 11 (300 degrees) -->
    <g transform="translate(250, 250) rotate(300)">
      <path d="M 0 -225 Q 15 -200 20 -175 Q 15 -150 0 -140 Q -15 -150 -20 -175 Q -15 -200 0 -225 Z" fill="white" stroke="#1a1a1a" stroke-width="2"/>
      <path d="M 0 -220 L 0 -145" stroke="#1a1a1a" stroke-width="0.7"/>
      <path d="M -12 -190 Q 0 -185 12 -190" fill="none" stroke="#1a1a1a" stroke-width="0.7"/>
      <path d="M -10 -170 Q 0 -165 10 -170" fill="none" stroke="#1a1a1a" stroke-width="0.7"/>
      <circle cx="0" cy="-180" r="8" fill="none" stroke="#1a1a1a" stroke-width="0.7"/>
    </g>
    
    <!-- Petal 12 (330 degrees) -->
    <g transform="translate(250, 250) rotate(330)">
      <path d="M 0 -225 Q 15 -200 20 -175 Q 15 -150 0 -140 Q -15 -150 -20 -175 Q -15 -200 0 -225 Z" fill="white" stroke="#1a1a1a" stroke-width="2"/>
      <path d="M 0 -220 L 0 -145" stroke="#1a1a1a" stroke-width="0.7"/>
      <path d="M -12 -190 Q 0 -185 12 -190" fill="none" stroke="#1a1a1a" stroke-width="0.7"/>
      <path d="M -10 -170 Q 0 -165 10 -170" fill="none" stroke="#1a1a1a" stroke-width="0.7"/>
      <circle cx="0" cy="-180" r="8" fill="none" stroke="#1a1a1a" stroke-width="0.7"/>
    </g>
  </g>
  
  <!-- Ring separator -->
  <circle cx="250" cy="250" r="135" fill="none" stroke="#1a1a1a" stroke-width="2"/>
  <circle cx="250" cy="250" r="140" fill="none" stroke="#1a1a1a" stroke-width="1"/>
  
  <!-- Middle geometric layer - 8 ornate shapes -->
  <g id="middle-layer">
    <!-- Shape 1 (0 degrees) -->
    <g transform="translate(250, 250)">
      <path d="M 0 -130 Q 20 -115 25 -95 Q 20 -75 0 -65 Q -20 -75 -25 -95 Q -20 -115 0 -130 Z" fill="white" stroke="#1a1a1a" stroke-width="2"/>
      <path d="M 0 -125 Q 12 -112 15 -95 Q 12 -78 0 -70 Q -12 -78 -15 -95 Q -12 -112 0 -125 Z" fill="none" stroke="#1a1a1a" stroke-width="1"/>
      <circle cx="0" cy="-95" r="10" fill="none" stroke="#1a1a1a" stroke-width="1"/>
      <circle cx="0" cy="-95" r="5" fill="none" stroke="#1a1a1a" stroke-width="0.7"/>
      <path d="M -8 -110 L 8 -80 M 8 -110 L -8 -80" stroke="#1a1a1a" stroke-width="0.7"/>
    </g>
    
    <!-- Shape 2 (45 degrees) -->
    <g transform="translate(250, 250) rotate(45)">
      <path d="M 0 -130 Q 20 -115 25 -95 Q 20 -75 0 -65 Q -20 -75 -25 -95 Q -20 -115 0 -130 Z" fill="white" stroke="#1a1a1a" stroke-width="2"/>
      <path d="M 0 -125 Q 12 -112 15 -95 Q 12 -78 0 -70 Q -12 -78 -15 -95 Q -12 -112 0 -125 Z" fill="none" stroke="#1a1a1a" stroke-width="1"/>
      <circle cx="0" cy="-95" r="10" fill="none" stroke="#1a1a1a" stroke-width="1"/>
      <circle cx="0" cy="-95" r="5" fill="none" stroke="#1a1a1a" stroke-width="0.7"/>
      <path d="M -8 -110 L 8 -80 M 8 -110 L -8 -80" stroke="#1a1a1a" stroke-width="0.7"/>
    </g>
    
    <!-- Shape 3 (90 degrees) -->
    <g transform="translate(250, 250) rotate(90)">
      <path d="M 0 -130 Q 20 -115 25 -95 Q 20 -75 0 -65 Q -20 -75 -25 -95 Q -20 -115 0 -130 Z" fill="white" stroke="#1a1a1a" stroke-width="2"/>
      <path d="M 0 -125 Q 12 -112 15 -95 Q 12 -78 0 -70 Q -12 -78 -15 -95 Q -12 -112 0 -125 Z" fill="none" stroke="#1a1a1a" stroke-width="1"/>
      <circle cx="0" cy="-95" r="10" fill="none" stroke="#1a1a1a" stroke-width="1"/>
      <circle cx="0" cy="-95" r="5" fill="none" stroke="#1a1a1a" stroke-width="0.7"/>
      <path d="M -8 -110 L 8 -80 M 8 -110 L -8 -80" stroke="#1a1a1a" stroke-width="0.7"/>
    </g>
    
    <!-- Shape 4 (135 degrees) -->
    <g transform="translate(250, 250) rotate(135)">
      <path d="M 0 -130 Q 20 -115 25 -95 Q 20 -75 0 -65 Q -20 -75 -25 -95 Q -20 -115 0 -130 Z" fill="white" stroke="#1a1a1a" stroke-width="2"/>
      <path d="M 0 -125 Q 12 -112 15 -95 Q 12 -78 0 -70 Q -12 -78 -15 -95 Q -12 -112 0 -125 Z" fill="none" stroke="#1a1a1a" stroke-width="1"/>
      <circle cx="0" cy="-95" r="10" fill="none" stroke="#1a1a1a" stroke-width="1"/>
      <circle cx="0" cy="-95" r="5" fill="none" stroke="#1a1a1a" stroke-width="0.7"/>
      <path d="M -8 -110 L 8 -80 M 8 -110 L -8 -80" stroke="#1a1a1a" stroke-width="0.7"/>
    </g>
    
    <!-- Shape 5 (180 degrees) -->
    <g transform="translate(250, 250) rotate(180)">
      <path d="M 0 -130 Q 20 -115 25 -95 Q 20 -75 0 -65 Q -20 -75 -25 -95 Q -20 -115 0 -130 Z" fill="white" stroke="#1a1a1a" stroke-width="2"/>
      <path d="M 0 -125 Q 12 -112 15 -95 Q 12 -78 0 -70 Q -12 -78 -15 -95 Q -12 -112 0 -125 Z" fill="none" stroke="#1a1a1a" stroke-width="1"/>
      <circle cx="0" cy="-95" r="10" fill="none" stroke="#1a1a1a" stroke-width="1"/>
      <circle cx="0" cy="-95" r="5" fill="none" stroke="#1a1a1a" stroke-width="0.7"/>
      <path d="M -8 -110 L 8 -80 M 8 -110 L -8 -80" stroke="#1a1a1a" stroke-width="0.7"/>
    </g>
    
    <!-- Shape 6 (225 degrees) -->
    <g transform="translate(250, 250) rotate(225)">
      <path d="M 0 -130 Q 20 -115 25 -95 Q 20 -75 0 -65 Q -20 -75 -25 -95 Q -20 -115 0 -130 Z" fill="white" stroke="#1a1a1a" stroke-width="2"/>
      <path d="M 0 -125 Q 12 -112 15 -95 Q 12 -78 0 -70 Q -12 -78 -15 -95 Q -12 -112 0 -125 Z" fill="none" stroke="#1a1a1a" stroke-width="1"/>
      <circle cx="0" cy="-95" r="10" fill="none" stroke="#1a1a1a" stroke-width="1"/>
      <circle cx="0" cy="-95" r="5" fill="none" stroke="#1a1a1a" stroke-width="0.7"/>
      <path d="M -8 -110 L 8 -80 M 8 -110 L -8 -80" stroke="#1a1a1a" stroke-width="0.7"/>
    </g>
    
    <!-- Shape 7 (270 degrees) -->
    <g transform="translate(250, 250) rotate(270)">
      <path d="M 0 -130 Q 20 -115 25 -95 Q 20 -75 0 -65 Q -20 -75 -25 -95 Q -20 -115 0 -130 Z" fill="white" stroke="#1a1a1a" stroke-width="2"/>
      <path d="M 0 -125 Q 12 -112 15 -95 Q 12 -78 0 -70 Q -12 -78 -15 -95 Q -12 -112 0 -125 Z" fill="none" stroke="#1a1a1a" stroke-width="1"/>
      <circle cx="0" cy="-95" r="10" fill="none" stroke="#1a1a1a" stroke-width="1"/>
      <circle cx="0" cy="-95" r="5" fill="none" stroke="#1a1a1a" stroke-width="0.7"/>
      <path d="M -8 -110 L 8 -80 M 8 -110 L -8 -80" stroke="#1a1a1a" stroke-width="0.7"/>
    </g>
    
    <!-- Shape 8 (315 degrees) -->
    <g transform="translate(250, 250) rotate(315)">
      <path d="M 0 -130 Q 20 -115 25 -95 Q 20 -75 0 -65 Q -20 -75 -25 -95 Q -20 -115 0 -130 Z" fill="white" stroke="#1a1a1a" stroke-width="2"/>
      <path d="M 0 -125 Q 12 -112 15 -95 Q 12 -78 0 -70 Q -12 -78 -15 -95 Q -12 -112 0 -125 Z" fill="none" stroke="#1a1a1a" stroke-width="1"/>
      <circle cx="0" cy="-95" r="10" fill="none" stroke="#1a1a1a" stroke-width="1"/>
      <circle cx="0" cy="-95" r="5" fill="none" stroke="#1a1a1a" stroke-width="0.7"/>
      <path d="M -8 -110 L 8 -80 M 8 -110 L -8 -80" stroke="#1a1a1a" stroke-width="0.7"/>
    </g>
  </g>
  
  <!-- Ring separator -->
  <circle cx="250" cy="250" r="60" fill="none" stroke="#1a1a1a" stroke-width="2"/>
  <circle cx="250" cy="250" r="65" fill="none" stroke="#1a1a1a" stroke-width="1"/>
  
  <!-- Inner floral layer - 16 small petals -->
  <g id="inner-petals">
    <g transform="translate(250, 250)">
      <ellipse cx="0" cy="-50" rx="8" ry="18" fill="white" stroke="#1a1a1a" stroke-width="1.5"/>
      <path d="M 0 -68 L 0 -32" stroke="#1a1a1a" stroke-width="0.5"/>
    </g>
    <g transform="translate(250, 250) rotate(22.5)">
      <ellipse cx="0" cy="-50" rx="8" ry="18" fill="white" stroke="#1a1a1a" stroke-width="1.5"/>
      <path d="M 0 -68 L 0 -32" stroke="#1a1a1a" stroke-width="0.5"/>
    </g>
    <g transform="translate(250, 250) rotate(45)">
      <ellipse cx="0" cy="-50" rx="8" ry="18" fill="white" stroke="#1a1a1a" stroke-width="1.5"/>
      <path d="M 0 -68 L 0 -32" stroke="#1a1a1a" stroke-width="0.5"/>
    </g>
    <g transform="translate(250, 250) rotate(67.5)">
      <ellipse cx="0" cy="-50" rx="8" ry="18" fill="white" stroke="#1a1a1a" stroke-width="1.5"/>
      <path d="M 0 -68 L 0 -32" stroke="#1a1a1a" stroke-width="0.5"/>
    </g>
    <g transform="translate(250, 250) rotate(90)">
      <ellipse cx="0" cy="-50" rx="8" ry="18" fill="white" stroke="#1a1a1a" stroke-width="1.5"/>
      <path d="M 0 -68 L 0 -32" stroke="#1a1a1a" stroke-width="0.5"/>
    </g>
    <g transform="translate(250, 250) rotate(112.5)">
      <ellipse cx="0" cy="-50" rx="8" ry="18" fill="white" stroke="#1a1a1a" stroke-width="1.5"/>
      <path d="M 0 -68 L 0 -32" stroke="#1a1a1a" stroke-width="0.5"/>
    </g>
    <g transform="translate(250, 250) rotate(135)">
      <ellipse cx="0" cy="-50" rx="8" ry="18" fill="white" stroke="#1a1a1a" stroke-width="1.5"/>
      <path d="M 0 -68 L 0 -32" stroke="#1a1a1a" stroke-width="0.5"/>
    </g>
    <g transform="translate(250, 250) rotate(157.5)">
      <ellipse cx="0" cy="-50" rx="8" ry="18" fill="white" stroke="#1a1a1a" stroke-width="1.5"/>
      <path d="M 0 -68 L 0 -32" stroke="#1a1a1a" stroke-width="0.5"/>
    </g>
    <g transform="translate(250, 250) rotate(180)">
      <ellipse cx="0" cy="-50" rx="8" ry="18" fill="white" stroke="#1a1a1a" stroke-width="1.5"/>
      <path d="M 0 -68 L 0 -32" stroke="#1a1a1a" stroke-width="0.5"/>
    </g>
    <g transform="translate(250, 250) rotate(202.5)">
      <ellipse cx="0" cy="-50" rx="8" ry="18" fill="white" stroke="#1a1a1a" stroke-width="1.5"/>
      <path d="M 0 -68 L 0 -32" stroke="#1a1a1a" stroke-width="0.5"/>
    </g>
    <g transform="translate(250, 250) rotate(225)">
      <ellipse cx="0" cy="-50" rx="8" ry="18" fill="white" stroke="#1a1a1a" stroke-width="1.5"/>
      <path d="M 0 -68 L 0 -32" stroke="#1a1a1a" stroke-width="0.5"/>
    </g>
    <g transform="translate(250, 250) rotate(247.5)">
      <ellipse cx="0" cy="-50" rx="8" ry="18" fill="white" stroke="#1a1a1a" stroke-width="1.5"/>
      <path d="M 0 -68 L 0 -32" stroke="#1a1a1a" stroke-width="0.5"/>
    </g>
    <g transform="translate(250, 250) rotate(270)">
      <ellipse cx="0" cy="-50" rx="8" ry="18" fill="white" stroke="#1a1a1a" stroke-width="1.5"/>
      <path d="M 0 -68 L 0 -32" stroke="#1a1a1a" stroke-width="0.5"/>
    </g>
    <g transform="translate(250, 250) rotate(292.5)">
      <ellipse cx="0" cy="-50" rx="8" ry="18" fill="white" stroke="#1a1a1a" stroke-width="1.5"/>
      <path d="M 0 -68 L 0 -32" stroke="#1a1a1a" stroke-width="0.5"/>
    </g>
    <g transform="translate(250, 250) rotate(315)">
      <ellipse cx="0" cy="-50" rx="8" ry="18" fill="white" stroke="#1a1a1a" stroke-width="1.5"/>
      <path d="M 0 -68 L 0 -32" stroke="#1a1a1a" stroke-width="0.5"/>
    </g>
    <g transform="translate(250, 250) rotate(337.5)">
      <ellipse cx="0" cy="-50" rx="8" ry="18" fill="white" stroke="#1a1a1a" stroke-width="1.5"/>
      <path d="M 0 -68 L 0 -32" stroke="#1a1a1a" stroke-width="0.5"/>
    </g>
  </g>
  
  <!-- Center complex flower -->
  <circle cx="250" cy="250" r="30" fill="white" stroke="#1a1a1a" stroke-width="2"/>
  <circle cx="250" cy="250" r="25" fill="none" stroke="#1a1a1a" stroke-width="1.5"/>
  <circle cx="250" cy="250" r="20" fill="none" stroke="#1a1a1a" stroke-width="1"/>
  <circle cx="250" cy="250" r="15" fill="none" stroke="#1a1a1a" stroke-width="1"/>
  
  <!-- Center star pattern -->
  <g transform="translate(250, 250)">
    <line x1="0" y1="-12" x2="0" y2="12" stroke="#1a1a1a" stroke-width="1"/>
    <line x1="-12" y1="0" x2="12" y2="0" stroke="#1a1a1a" stroke-width="1"/>
    <line x1="-8.5" y1="-8.5" x2="8.5" y2="8.5" stroke="#1a1a1a" stroke-width="1"/>
    <line x1="8.5" y1="-8.5" x2="-8.5" y2="8.5" stroke="#1a1a1a" stroke-width="1"/>
  </g>
  
  <!-- Center dots -->
  <circle cx="250" cy="235" r="2" fill="#1a1a1a"/>
  <circle cx="265" cy="250" r="2" fill="#1a1a1a"/>
  <circle cx="250" cy="265" r="2" fill="#1a1a1a"/>
  <circle cx="235" cy="250" r="2" fill="#1a1a1a"/>
  <circle cx="257" cy="243" r="1.5" fill="#1a1a1a"/>
  <circle cx="257" cy="257" r="1.5" fill="#1a1a1a"/>
  <circle cx="243" cy="257" r="1.5" fill="#1a1a1a"/>
  <circle cx="243" cy="243" r="1.5" fill="#1a1a1a"/>
</svg>