<svg viewBox="0 0 400 400" xmlns="http://www.w3.org/2000/svg">
  <!-- Celestial Sun Mandala - Adult Coloring -->
  
  <!-- Outer rays ring -->
  <g id="outer-rays">
    <path id="ray-1" d="M200 5 L210 50 L200 45 L190 50 Z" fill="white" stroke="#1a1a1a" stroke-width="1"/>
    <path id="ray-2" d="M200 5 L210 50 L200 45 L190 50 Z" fill="white" stroke="#1a1a1a" stroke-width="1" transform="rotate(15 200 200)"/>
    <path id="ray-3" d="M200 5 L210 50 L200 45 L190 50 Z" fill="white" stroke="#1a1a1a" stroke-width="1" transform="rotate(30 200 200)"/>
    <path id="ray-4" d="M200 5 L210 50 L200 45 L190 50 Z" fill="white" stroke="#1a1a1a" stroke-width="1" transform="rotate(45 200 200)"/>
    <path id="ray-5" d="M200 5 L210 50 L200 45 L190 50 Z" fill="white" stroke="#1a1a1a" stroke-width="1" transform="rotate(60 200 200)"/>
    <path id="ray-6" d="M200 5 L210 50 L200 45 L190 50 Z" fill="white" stroke="#1a1a1a" stroke-width="1" transform="rotate(75 200 200)"/>
    <path id="ray-7" d="M200 5 L210 50 L200 45 L190 50 Z" fill="white" stroke="#1a1a1a" stroke-width="1" transform="rotate(90 200 200)"/>
    <path id="ray-8" d="M200 5 L210 50 L200 45 L190 50 Z" fill="white" stroke="#1a1a1a" stroke-width="1" transform="rotate(105 200 200)"/>
    <path id="ray-9" d="M200 5 L210 50 L200 45 L190 50 Z" fill="white" stroke="#1a1a1a" stroke-width="1" transform="rotate(120 200 200)"/>
    <path id="ray-10" d="M200 5 L210 50 L200 45 L190 50 Z" fill="white" stroke="#1a1a1a" stroke-width="1" transform="rotate(135 200 200)"/>
    <path id="ray-11" d="M200 5 L210 50 L200 45 L190 50 Z" fill="white" stroke="#1a1a1a" stroke-width="1" transform="rotate(150 200 200)"/>
    <path id="ray-12" d="M200 5 L210 50 L200 45 L190 50 Z" fill="white" stroke="#1a1a1a" stroke-width="1" transform="rotate(165 200 200)"/>
    <path id="ray-13" d="M200 5 L210 50 L200 45 L190 50 Z" fill="white" stroke="#1a1a1a" stroke-width="1" transform="rotate(180 200 200)"/>
    <path id="ray-14" d="M200 5 L210 50 L200 45 L190 50 Z" fill="white" stroke="#1a1a1a" stroke-width="1" transform="rotate(195 200 200)"/>
    <path id="ray-15" d="M200 5 L210 50 L200 45 L190 50 Z" fill="white" stroke="#1a1a1a" stroke-width="1" transform="rotate(210 200 200)"/>
    <path id="ray-16" d="M200 5 L210 50 L200 45 L190 50 Z" fill="white" stroke="#1a1a1a" stroke-width="1" transform="rotate(225 200 200)"/>
    <path id="ray-17" d="M200 5 L210 50 L200 45 L190 50 Z" fill="white" stroke="#1a1a1a" stroke-width="1" transform="rotate(240 200 200)"/>
    <path id="ray-18" d="M200 5 L210 50 L200 45 L190 50 Z" fill="white" stroke="#1a1a1a" stroke-width="1" transform="rotate(255 200 200)"/>
    <path id="ray-19" d="M200 5 L210 50 L200 45 L190 50 Z" fill="white" stroke="#1a1a1a" stroke-width="1" transform="rotate(270 200 200)"/>
    <path id="ray-20" d="M200 5 L210 50 L200 45 L190 50 Z" fill="white" stroke="#1a1a1a" stroke-width="1" transform="rotate(285 200 200)"/>
    <path id="ray-21" d="M200 5 L210 50 L200 45 L190 50 Z" fill="white" stroke="#1a1a1a" stroke-width="1" transform="rotate(300 200 200)"/>
    <path id="ray-22" d="M200 5 L210 50 L200 45 L190 50 Z" fill="white" stroke="#1a1a1a" stroke-width="1" transform="rotate(315 200 200)"/>
    <path id="ray-23" d="M200 5 L210 50 L200 45 L190 50 Z" fill="white" stroke="#1a1a1a" stroke-width="1" transform="rotate(330 200 200)"/>
    <path id="ray-24" d="M200 5 L210 50 L200 45 L190 50 Z" fill="white" stroke="#1a1a1a" stroke-width="1" transform="rotate(345 200 200)"/>
  </g>
  
  <!-- Wavy rays between main rays -->
  <g id="wavy-rays">
    <path id="wavy-1" d="M200 55 Q215 75 200 95" fill="none" stroke="#1a1a1a" stroke-width="1" transform="rotate(7.5 200 200)"/>
    <path id="wavy-2" d="M200 55 Q215 75 200 95" fill="none" stroke="#1a1a1a" stroke-width="1" transform="rotate(22.5 200 200)"/>
    <path id="wavy-3" d="M200 55 Q215 75 200 95" fill="none" stroke="#1a1a1a" stroke-width="1" transform="rotate(37.5 200 200)"/>
    <path id="wavy-4" d="M200 55 Q215 75 200 95" fill="none" stroke="#1a1a1a" stroke-width="1" transform="rotate(52.5 200 200)"/>
    <path id="wavy-5" d="M200 55 Q215 75 200 95" fill="none" stroke="#1a1a1a" stroke-width="1" transform="rotate(67.5 200 200)"/>
    <path id="wavy-6" d="M200 55 Q215 75 200 95" fill="none" stroke="#1a1a1a" stroke-width="1" transform="rotate(82.5 200 200)"/>
    <path id="wavy-7" d="M200 55 Q215 75 200 95" fill="none" stroke="#1a1a1a" stroke-width="1" transform="rotate(97.5 200 200)"/>
    <path id="wavy-8" d="M200 55 Q215 75 200 95" fill="none" stroke="#1a1a1a" stroke-width="1" transform="rotate(112.5 200 200)"/>
    <path id="wavy-9" d="M200 55 Q215 75 200 95" fill="none" stroke="#1a1a1a" stroke-width="1" transform="rotate(127.5 200 200)"/>
    <path id="wavy-10" d="M200 55 Q215 75 200 95" fill="none" stroke="#1a1a1a" stroke-width="1" transform="rotate(142.5 200 200)"/>
    <path id="wavy-11" d="M200 55 Q215 75 200 95" fill="none" stroke="#1a1a1a" stroke-width="1" transform="rotate(157.5 200 200)"/>
    <path id="wavy-12" d="M200 55 Q215 75 200 95" fill="none" stroke="#1a1a1a" stroke-width="1" transform="rotate(172.5 200 200)"/>
    <path id="wavy-13" d="M200 55 Q215 75 200 95" fill="none" stroke="#1a1a1a" stroke-width="1" transform="rotate(187.5 200 200)"/>
    <path id="wavy-14" d="M200 55 Q215 75 200 95" fill="none" stroke="#1a1a1a" stroke-width="1" transform="rotate(202.5 200 200)"/>
    <path id="wavy-15" d="M200 55 Q215 75 200 95" fill="none" stroke="#1a1a1a" stroke-width="1" transform="rotate(217.5 200 200)"/>
    <path id="wavy-16" d="M200 55 Q215 75 200 95" fill="none" stroke="#1a1a1a" stroke-width="1" transform="rotate(232.5 200 200)"/>
    <path id="wavy-17" d="M200 55 Q215 75 200 95" fill="none" stroke="#1a1a1a" stroke-width="1" transform="rotate(247.5 200 200)"/>
    <path id="wavy-18" d="M200 55 Q215 75 200 95" fill="none" stroke="#1a1a1a" stroke-width="1" transform="rotate(262.5 200 200)"/>
    <path id="wavy-19" d="M200 55 Q215 75 200 95" fill="none" stroke="#1a1a1a" stroke-width="1" transform="rotate(277.5 200 200)"/>
    <path id="wavy-20" d="M200 55 Q215 75 200 95" fill="none" stroke="#1a1a1a" stroke-width="1" transform="rotate(292.5 200 200)"/>
    <path id="wavy-21" d="M200 55 Q215 75 200 95" fill="none" stroke="#1a1a1a" stroke-width="1" transform="rotate(307.5 200 200)"/>
    <path id="wavy-22" d="M200 55 Q215 75 200 95" fill="none" stroke="#1a1a1a" stroke-width="1" transform="rotate(322.5 200 200)"/>
    <path id="wavy-23" d="M200 55 Q215 75 200 95" fill="none" stroke="#1a1a1a" stroke-width="1" transform="rotate(337.5 200 200)"/>
    <path id="wavy-24" d="M200 55 Q215 75 200 95" fill="none" stroke="#1a1a1a" stroke-width="1" transform="rotate(352.5 200 200)"/>
  </g>
  
  <!-- Outer decorative ring -->
  <circle id="outer-ring-1" cx="200" cy="200" r="145" fill="white" stroke="#1a1a1a" stroke-width="1.5"/>
  <circle id="outer-ring-2" cx="200" cy="200" r="138" fill="white" stroke="#1a1a1a" stroke-width="1"/>
  
  <!-- Flame petals -->
  <g id="flame-petals">
    <path id="flame-1" d="M200 65 Q225 100 220 140 Q200 120 180 140 Q175 100 200 65" fill="white" stroke="#1a1a1a" stroke-width="1"/>
    <path id="flame-inner-1" d="M200 85 Q215 105 212 128 Q200 115 188 128 Q185 105 200 85" fill="white" stroke="#1a1a1a" stroke-width="0.8"/>
    <path id="flame-2" d="M200 65 Q225 100 220 140 Q200 120 180 140 Q175 100 200 65" fill="white" stroke="#1a1a1a" stroke-width="1" transform="rotate(45 200 200)"/>
    <path id="flame-inner-2" d="M200 85 Q215 105 212 128 Q200 115 188 128 Q185 105 200 85" fill="white" stroke="#1a1a1a" stroke-width="0.8" transform="rotate(45 200 200)"/>
    <path id="flame-3" d="M200 65 Q225 100 220 140 Q200 120 180 140 Q175 100 200 65" fill="white" stroke="#1a1a1a" stroke-width="1" transform="rotate(90 200 200)"/>
    <path id="flame-inner-3" d="M200 85 Q215 105 212 128 Q200 115 188 128 Q185 105 200 85" fill="white" stroke="#1a1a1a" stroke-width="0.8" transform="rotate(90 200 200)"/>
    <path id="flame-4" d="M200 65 Q225 100 220 140 Q200 120 180 140 Q175 100 200 65" fill="white" stroke="#1a1a1a" stroke-width="1" transform="rotate(135 200 200)"/>
    <path id="flame-inner-4" d="M200 85 Q215 105 212 128 Q200 115 188 128 Q185 105 200 85" fill="white" stroke="#1a1a1a" stroke-width="0.8" transform="rotate(135 200 200)"/>
    <path id="flame-5" d="M200 65 Q225 100 220 140 Q200 120 180 140 Q175 100 200 65" fill="white" stroke="#1a1a1a" stroke-width="1" transform="rotate(180 200 200)"/>
    <path id="flame-inner-5" d="M200 85 Q215 105 212 128 Q200 115 188 128 Q185 105 200 85" fill="white" stroke="#1a1a1a" stroke-width="0.8" transform="rotate(180 200 200)"/>
    <path id="flame-6" d="M200 65 Q225 100 220 140 Q200 120 180 140 Q175 100 200 65" fill="white" stroke="#1a1a1a" stroke-width="1" transform="rotate(225 200 200)"/>
    <path id="flame-inner-6" d="M200 85 Q215 105 212 128 Q200 115 188 128 Q185 105 200 85" fill="white" stroke="#1a1a1a" stroke-width="0.8" transform="rotate(225 200 200)"/>
    <path id="flame-7" d="M200 65 Q225 100 220 140 Q200 120 180 140 Q175 100 200 65" fill="white" stroke="#1a1a1a" stroke-width="1" transform="rotate(270 200 200)"/>
    <path id="flame-inner-7" d="M200 85 Q215 105 212 128 Q200 115 188 128 Q185 105 200 85" fill="white" stroke="#1a1a1a" stroke-width="0.8" transform="rotate(270 200 200)"/>
    <path id="flame-8" d="M200 65 Q225 100 220 140 Q200 120 180 140 Q175 100 200 65" fill="white" stroke="#1a1a1a" stroke-width="1" transform="rotate(315 200 200)"/>
    <path id="flame-inner-8" d="M200 85 Q215 105 212 128 Q200 115 188 128 Q185 105 200 85" fill="white" stroke="#1a1a1a" stroke-width="0.8" transform="rotate(315 200 200)"/>
  </g>
  
  <!-- Sun face circle -->
  <circle id="face-outer" cx="200" cy="200" r="75" fill="white" stroke="#1a1a1a" stroke-width="1.5"/>
  <circle id="face-inner" cx="200" cy="200" r="68" fill="white" stroke="#1a1a1a" stroke-width="1"/>
  
  <!-- Decorative face elements -->
  <circle id="eye-left" cx="175" cy="185" r="12" fill="white" stroke="#1a1a1a" stroke-width="1"/>
  <circle id="eye-left-inner" cx="175" cy="185" r="6" fill="white" stroke="#1a1a1a" stroke-width="0.8"/>
  <circle id="eye-right" cx="225" cy="185" r="12" fill="white" stroke="#1a1a1a" stroke-width="1"/>
  <circle id="eye-right-inner" cx="225" cy="185" r="6" fill="white" stroke="#1a1a1a" stroke-width="0.8"/>
  
  <!-- Decorative curves for face -->
  <path id="brow-left" d="M158 170 Q175 160 192 170" fill="none" stroke="#1a1a1a" stroke-width="1"/>
  <path id="brow-right" d="M208 170 Q225 160 242 170" fill="none" stroke="#1a1a1a" stroke-width="1"/>
  
  <!-- Nose -->
  <path id="nose" d="M200 195 L195 215 Q200 218 205 215 L200 195" fill="white" stroke="#1a1a1a" stroke-width="0.8"/>
  
  <!-- Mouth -->
  <path id="mouth" d="M175 230 Q187 242 200 242 Q213 242 225 230" fill="none" stroke="#1a1a1a" stroke-width="1"/>
  <path id="smile-detail" d="M182 238 Q200 250 218 238" fill="none" stroke="#1a1a1a" stroke-width="0.5"/>
  
  <!-- Cheek decorations -->
  <circle id="cheek-left" cx="160" cy="210" r="8" fill="white" stroke="#1a1a1a" stroke-width="0.8"/>
  <circle id="cheek-right" cx="240" cy="210" r="8" fill="white" stroke="#1a1a1a" stroke-width="0.8"/>
</svg>