<svg viewBox="0 0 400 400" xmlns="http://www.w3.org/2000/svg">
  <!-- Complex Geometric Mandala - Adult Coloring -->
  
  <!-- Outer border -->
  <circle id="border-1" cx="200" cy="200" r="195" fill="white" stroke="#1a1a1a" stroke-width="2"/>
  <circle id="border-2" cx="200" cy="200" r="190" fill="white" stroke="#1a1a1a" stroke-width="1"/>
  
  <!-- Outer triangular pattern ring -->
  <g id="outer-triangles">
    <polygon id="tri-1" points="200,15 210,35 190,35" fill="white" stroke="#1a1a1a" stroke-width="1"/>
    <polygon id="tri-2" points="200,15 210,35 190,35" fill="white" stroke="#1a1a1a" stroke-width="1" transform="rotate(15 200 200)"/>
    <polygon id="tri-3" points="200,15 210,35 190,35" fill="white" stroke="#1a1a1a" stroke-width="1" transform="rotate(30 200 200)"/>
    <polygon id="tri-4" points="200,15 210,35 190,35" fill="white" stroke="#1a1a1a" stroke-width="1" transform="rotate(45 200 200)"/>
    <polygon id="tri-5" points="200,15 210,35 190,35" fill="white" stroke="#1a1a1a" stroke-width="1" transform="rotate(60 200 200)"/>
    <polygon id="tri-6" points="200,15 210,35 190,35" fill="white" stroke="#1a1a1a" stroke-width="1" transform="rotate(75 200 200)"/>
    <polygon id="tri-7" points="200,15 210,35 190,35" fill="white" stroke="#1a1a1a" stroke-width="1" transform="rotate(90 200 200)"/>
    <polygon id="tri-8" points="200,15 210,35 190,35" fill="white" stroke="#1a1a1a" stroke-width="1" transform="rotate(105 200 200)"/>
    <polygon id="tri-9" points="200,15 210,35 190,35" fill="white" stroke="#1a1a1a" stroke-width="1" transform="rotate(120 200 200)"/>
    <polygon id="tri-10" points="200,15 210,35 190,35" fill="white" stroke="#1a1a1a" stroke-width="1" transform="rotate(135 200 200)"/>
    <polygon id="tri-11" points="200,15 210,35 190,35" fill="white" stroke="#1a1a1a" stroke-width="1" transform="rotate(150 200 200)"/>
    <polygon id="tri-12" points="200,15 210,35 190,35" fill="white" stroke="#1a1a1a" stroke-width="1" transform="rotate(165 200 200)"/>
    <polygon id="tri-13" points="200,15 210,35 190,35" fill="white" stroke="#1a1a1a" stroke-width="1" transform="rotate(180 200 200)"/>
    <polygon id="tri-14" points="200,15 210,35 190,35" fill="white" stroke="#1a1a1a" stroke-width="1" transform="rotate(195 200 200)"/>
    <polygon id="tri-15" points="200,15 210,35 190,35" fill="white" stroke="#1a1a1a" stroke-width="1" transform="rotate(210 200 200)"/>
    <polygon id="tri-16" points="200,15 210,35 190,35" fill="white" stroke="#1a1a1a" stroke-width="1" transform="rotate(225 200 200)"/>
    <polygon id="tri-17" points="200,15 210,35 190,35" fill="white" stroke="#1a1a1a" stroke-width="1" transform="rotate(240 200 200)"/>
    <polygon id="tri-18" points="200,15 210,35 190,35" fill="white" stroke="#1a1a1a" stroke-width="1" transform="rotate(255 200 200)"/>
    <polygon id="tri-19" points="200,15 210,35 190,35" fill="white" stroke="#1a1a1a" stroke-width="1" transform="rotate(270 200 200)"/>
    <polygon id="tri-20" points="200,15 210,35 190,35" fill="white" stroke="#1a1a1a" stroke-width="1" transform="rotate(285 200 200)"/>
    <polygon id="tri-21" points="200,15 210,35 190,35" fill="white" stroke="#1a1a1a" stroke-width="1" transform="rotate(300 200 200)"/>
    <polygon id="tri-22" points="200,15 210,35 190,35" fill="white" stroke="#1a1a1a" stroke-width="1" transform="rotate(315 200 200)"/>
    <polygon id="tri-23" points="200,15 210,35 190,35" fill="white" stroke="#1a1a1a" stroke-width="1" transform="rotate(330 200 200)"/>
    <polygon id="tri-24" points="200,15 210,35 190,35" fill="white" stroke="#1a1a1a" stroke-width="1" transform="rotate(345 200 200)"/>
  </g>
  
  <!-- Diamond ring -->
  <circle id="diamond-ring" cx="200" cy="200" r="155" fill="white" stroke="#1a1a1a" stroke-width="1"/>
  <g id="diamonds">
    <polygon id="diamond-1" points="200,50 215,70 200,90 185,70" fill="white" stroke="#1a1a1a" stroke-width="1"/>
    <polygon id="diamond-2" points="200,50 215,70 200,90 185,70" fill="white" stroke="#1a1a1a" stroke-width="1" transform="rotate(30 200 200)"/>
    <polygon id="diamond-3" points="200,50 215,70 200,90 185,70" fill="white" stroke="#1a1a1a" stroke-width="1" transform="rotate(60 200 200)"/>
    <polygon id="diamond-4" points="200,50 215,70 200,90 185,70" fill="white" stroke="#1a1a1a" stroke-width="1" transform="rotate(90 200 200)"/>
    <polygon id="diamond-5" points="200,50 215,70 200,90 185,70" fill="white" stroke="#1a1a1a" stroke-width="1" transform="rotate(120 200 200)"/>
    <polygon id="diamond-6" points="200,50 215,70 200,90 185,70" fill="white" stroke="#1a1a1a" stroke-width="1" transform="rotate(150 200 200)"/>
    <polygon id="diamond-7" points="200,50 215,70 200,90 185,70" fill="white" stroke="#1a1a1a" stroke-width="1" transform="rotate(180 200 200)"/>
    <polygon id="diamond-8" points="200,50 215,70 200,90 185,70" fill="white" stroke="#1a1a1a" stroke-width="1" transform="rotate(210 200 200)"/>
    <polygon id="diamond-9" points="200,50 215,70 200,90 185,70" fill="white" stroke="#1a1a1a" stroke-width="1" transform="rotate(240 200 200)"/>
    <polygon id="diamond-10" points="200,50 215,70 200,90 185,70" fill="white" stroke="#1a1a1a" stroke-width="1" transform="rotate(270 200 200)"/>
    <polygon id="diamond-11" points="200,50 215,70 200,90 185,70" fill="white" stroke="#1a1a1a" stroke-width="1" transform="rotate(300 200 200)"/>
    <polygon id="diamond-12" points="200,50 215,70 200,90 185,70" fill="white" stroke="#1a1a1a" stroke-width="1" transform="rotate(330 200 200)"/>
  </g>
  
  <!-- Hexagonal pattern -->
  <circle id="hex-ring" cx="200" cy="200" r="115" fill="white" stroke="#1a1a1a" stroke-width="1"/>
  <polygon id="hex-1" points="200,85 240,108 240,154 200,177 160,154 160,108" fill="white" stroke="#1a1a1a" stroke-width="1"/>
  <polygon id="hex-inner-1" points="200,100 225,115 225,145 200,160 175,145 175,115" fill="white" stroke="#1a1a1a" stroke-width="0.8"/>
  
  <!-- Square rotations -->
  <g id="squares">
    <rect id="sq-1" x="165" y="165" width="70" height="70" fill="white" stroke="#1a1a1a" stroke-width="1"/>
    <rect id="sq-2" x="165" y="165" width="70" height="70" fill="white" stroke="#1a1a1a" stroke-width="1" transform="rotate(15 200 200)"/>
    <rect id="sq-3" x="165" y="165" width="70" height="70" fill="white" stroke="#1a1a1a" stroke-width="1" transform="rotate(30 200 200)"/>
    <rect id="sq-4" x="165" y="165" width="70" height="70" fill="white" stroke="#1a1a1a" stroke-width="1" transform="rotate(45 200 200)"/>
    <rect id="sq-5" x="165" y="165" width="70" height="70" fill="white" stroke="#1a1a1a" stroke-width="1" transform="rotate(60 200 200)"/>
    <rect id="sq-6" x="165" y="165" width="70" height="70" fill="white" stroke="#1a1a1a" stroke-width="1" transform="rotate(75 200 200)"/>
  </g>
  
  <!-- Inner circles -->
  <circle id="inner-1" cx="200" cy="200" r="50" fill="white" stroke="#1a1a1a" stroke-width="1"/>
  <circle id="inner-2" cx="200" cy="200" r="40" fill="white" stroke="#1a1a1a" stroke-width="1"/>
  <circle id="inner-3" cx="200" cy="200" r="30" fill="white" stroke="#1a1a1a" stroke-width="1"/>
  <circle id="inner-4" cx="200" cy="200" r="20" fill="white" stroke="#1a1a1a" stroke-width="1"/>
  <circle id="inner-5" cx="200" cy="200" r="10" fill="white" stroke="#1a1a1a" stroke-width="1"/>
  
  <!-- Radiating lines -->
  <g id="radial-lines">
    <line x1="200" y1="150" x2="200" y2="85" stroke="#1a1a1a" stroke-width="0.5"/>
    <line x1="200" y1="150" x2="200" y2="85" stroke="#1a1a1a" stroke-width="0.5" transform="rotate(30 200 200)"/>
    <line x1="200" y1="150" x2="200" y2="85" stroke="#1a1a1a" stroke-width="0.5" transform="rotate(60 200 200)"/>
    <line x1="200" y1="150" x2="200" y2="85" stroke="#1a1a1a" stroke-width="0.5" transform="rotate(90 200 200)"/>
    <line x1="200" y1="150" x2="200" y2="85" stroke="#1a1a1a" stroke-width="0.5" transform="rotate(120 200 200)"/>
    <line x1="200" y1="150" x2="200" y2="85" stroke="#1a1a1a" stroke-width="0.5" transform="rotate(150 200 200)"/>
    <line x1="200" y1="150" x2="200" y2="85" stroke="#1a1a1a" stroke-width="0.5" transform="rotate(180 200 200)"/>
    <line x1="200" y1="150" x2="200" y2="85" stroke="#1a1a1a" stroke-width="0.5" transform="rotate(210 200 200)"/>
    <line x1="200" y1="150" x2="200" y2="85" stroke="#1a1a1a" stroke-width="0.5" transform="rotate(240 200 200)"/>
    <line x1="200" y1="150" x2="200" y2="85" stroke="#1a1a1a" stroke-width="0.5" transform="rotate(270 200 200)"/>
    <line x1="200" y1="150" x2="200" y2="85" stroke="#1a1a1a" stroke-width="0.5" transform="rotate(300 200 200)"/>
    <line x1="200" y1="150" x2="200" y2="85" stroke="#1a1a1a" stroke-width="0.5" transform="rotate(330 200 200)"/>
  </g>
</svg>