<svg viewBox="0 0 400 400" xmlns="http://www.w3.org/2000/svg">
  <!-- Intricate Lotus Mandala - Adult Coloring -->
  
  <!-- Outer decorative ring -->
  <circle id="outer-ring-1" cx="200" cy="200" r="195" fill="white" stroke="#1a1a1a" stroke-width="1.5"/>
  <circle id="outer-ring-2" cx="200" cy="200" r="188" fill="white" stroke="#1a1a1a" stroke-width="1"/>
  
  <!-- Outer petal ring - 16 petals -->
  <g id="outer-petals">
    <path id="outer-petal-1" d="M200 10 Q220 50 200 90 Q180 50 200 10" fill="white" stroke="#1a1a1a" stroke-width="1.2"/>
    <path id="outer-petal-2" d="M200 10 Q220 50 200 90 Q180 50 200 10" fill="white" stroke="#1a1a1a" stroke-width="1.2" transform="rotate(22.5 200 200)"/>
    <path id="outer-petal-3" d="M200 10 Q220 50 200 90 Q180 50 200 10" fill="white" stroke="#1a1a1a" stroke-width="1.2" transform="rotate(45 200 200)"/>
    <path id="outer-petal-4" d="M200 10 Q220 50 200 90 Q180 50 200 10" fill="white" stroke="#1a1a1a" stroke-width="1.2" transform="rotate(67.5 200 200)"/>
    <path id="outer-petal-5" d="M200 10 Q220 50 200 90 Q180 50 200 10" fill="white" stroke="#1a1a1a" stroke-width="1.2" transform="rotate(90 200 200)"/>
    <path id="outer-petal-6" d="M200 10 Q220 50 200 90 Q180 50 200 10" fill="white" stroke="#1a1a1a" stroke-width="1.2" transform="rotate(112.5 200 200)"/>
    <path id="outer-petal-7" d="M200 10 Q220 50 200 90 Q180 50 200 10" fill="white" stroke="#1a1a1a" stroke-width="1.2" transform="rotate(135 200 200)"/>
    <path id="outer-petal-8" d="M200 10 Q220 50 200 90 Q180 50 200 10" fill="white" stroke="#1a1a1a" stroke-width="1.2" transform="rotate(157.5 200 200)"/>
    <path id="outer-petal-9" d="M200 10 Q220 50 200 90 Q180 50 200 10" fill="white" stroke="#1a1a1a" stroke-width="1.2" transform="rotate(180 200 200)"/>
    <path id="outer-petal-10" d="M200 10 Q220 50 200 90 Q180 50 200 10" fill="white" stroke="#1a1a1a" stroke-width="1.2" transform="rotate(202.5 200 200)"/>
    <path id="outer-petal-11" d="M200 10 Q220 50 200 90 Q180 50 200 10" fill="white" stroke="#1a1a1a" stroke-width="1.2" transform="rotate(225 200 200)"/>
    <path id="outer-petal-12" d="M200 10 Q220 50 200 90 Q180 50 200 10" fill="white" stroke="#1a1a1a" stroke-width="1.2" transform="rotate(247.5 200 200)"/>
    <path id="outer-petal-13" d="M200 10 Q220 50 200 90 Q180 50 200 10" fill="white" stroke="#1a1a1a" stroke-width="1.2" transform="rotate(270 200 200)"/>
    <path id="outer-petal-14" d="M200 10 Q220 50 200 90 Q180 50 200 10" fill="white" stroke="#1a1a1a" stroke-width="1.2" transform="rotate(292.5 200 200)"/>
    <path id="outer-petal-15" d="M200 10 Q220 50 200 90 Q180 50 200 10" fill="white" stroke="#1a1a1a" stroke-width="1.2" transform="rotate(315 200 200)"/>
    <path id="outer-petal-16" d="M200 10 Q220 50 200 90 Q180 50 200 10" fill="white" stroke="#1a1a1a" stroke-width="1.2" transform="rotate(337.5 200 200)"/>
  </g>
  
  <!-- Mid decorative circles -->
  <circle id="mid-ring-1" cx="200" cy="200" r="105" fill="white" stroke="#1a1a1a" stroke-width="1"/>
  <circle id="mid-ring-2" cx="200" cy="200" r="100" fill="white" stroke="#1a1a1a" stroke-width="0.8"/>
  
  <!-- Middle petal layer - 12 detailed petals -->
  <g id="middle-petals">
    <path id="mid-petal-1" d="M200 100 Q230 130 220 170 Q200 150 180 170 Q170 130 200 100" fill="white" stroke="#1a1a1a" stroke-width="1"/>
    <path id="mid-petal-inner-1" d="M200 110 Q215 130 210 155 Q200 145 190 155 Q185 130 200 110" fill="white" stroke="#1a1a1a" stroke-width="0.8"/>
    <path id="mid-petal-2" d="M200 100 Q230 130 220 170 Q200 150 180 170 Q170 130 200 100" fill="white" stroke="#1a1a1a" stroke-width="1" transform="rotate(30 200 200)"/>
    <path id="mid-petal-inner-2" d="M200 110 Q215 130 210 155 Q200 145 190 155 Q185 130 200 110" fill="white" stroke="#1a1a1a" stroke-width="0.8" transform="rotate(30 200 200)"/>
    <path id="mid-petal-3" d="M200 100 Q230 130 220 170 Q200 150 180 170 Q170 130 200 100" fill="white" stroke="#1a1a1a" stroke-width="1" transform="rotate(60 200 200)"/>
    <path id="mid-petal-inner-3" d="M200 110 Q215 130 210 155 Q200 145 190 155 Q185 130 200 110" fill="white" stroke="#1a1a1a" stroke-width="0.8" transform="rotate(60 200 200)"/>
    <path id="mid-petal-4" d="M200 100 Q230 130 220 170 Q200 150 180 170 Q170 130 200 100" fill="white" stroke="#1a1a1a" stroke-width="1" transform="rotate(90 200 200)"/>
    <path id="mid-petal-inner-4" d="M200 110 Q215 130 210 155 Q200 145 190 155 Q185 130 200 110" fill="white" stroke="#1a1a1a" stroke-width="0.8" transform="rotate(90 200 200)"/>
    <path id="mid-petal-5" d="M200 100 Q230 130 220 170 Q200 150 180 170 Q170 130 200 100" fill="white" stroke="#1a1a1a" stroke-width="1" transform="rotate(120 200 200)"/>
    <path id="mid-petal-inner-5" d="M200 110 Q215 130 210 155 Q200 145 190 155 Q185 130 200 110" fill="white" stroke="#1a1a1a" stroke-width="0.8" transform="rotate(120 200 200)"/>
    <path id="mid-petal-6" d="M200 100 Q230 130 220 170 Q200 150 180 170 Q170 130 200 100" fill="white" stroke="#1a1a1a" stroke-width="1" transform="rotate(150 200 200)"/>
    <path id="mid-petal-inner-6" d="M200 110 Q215 130 210 155 Q200 145 190 155 Q185 130 200 110" fill="white" stroke="#1a1a1a" stroke-width="0.8" transform="rotate(150 200 200)"/>
    <path id="mid-petal-7" d="M200 100 Q230 130 220 170 Q200 150 180 170 Q170 130 200 100" fill="white" stroke="#1a1a1a" stroke-width="1" transform="rotate(180 200 200)"/>
    <path id="mid-petal-inner-7" d="M200 110 Q215 130 210 155 Q200 145 190 155 Q185 130 200 110" fill="white" stroke="#1a1a1a" stroke-width="0.8" transform="rotate(180 200 200)"/>
    <path id="mid-petal-8" d="M200 100 Q230 130 220 170 Q200 150 180 170 Q170 130 200 100" fill="white" stroke="#1a1a1a" stroke-width="1" transform="rotate(210 200 200)"/>
    <path id="mid-petal-inner-8" d="M200 110 Q215 130 210 155 Q200 145 190 155 Q185 130 200 110" fill="white" stroke="#1a1a1a" stroke-width="0.8" transform="rotate(210 200 200)"/>
    <path id="mid-petal-9" d="M200 100 Q230 130 220 170 Q200 150 180 170 Q170 130 200 100" fill="white" stroke="#1a1a1a" stroke-width="1" transform="rotate(240 200 200)"/>
    <path id="mid-petal-inner-9" d="M200 110 Q215 130 210 155 Q200 145 190 155 Q185 130 200 110" fill="white" stroke="#1a1a1a" stroke-width="0.8" transform="rotate(240 200 200)"/>
    <path id="mid-petal-10" d="M200 100 Q230 130 220 170 Q200 150 180 170 Q170 130 200 100" fill="white" stroke="#1a1a1a" stroke-width="1" transform="rotate(270 200 200)"/>
    <path id="mid-petal-inner-10" d="M200 110 Q215 130 210 155 Q200 145 190 155 Q185 130 200 110" fill="white" stroke="#1a1a1a" stroke-width="0.8" transform="rotate(270 200 200)"/>
    <path id="mid-petal-11" d="M200 100 Q230 130 220 170 Q200 150 180 170 Q170 130 200 100" fill="white" stroke="#1a1a1a" stroke-width="1" transform="rotate(300 200 200)"/>
    <path id="mid-petal-inner-11" d="M200 110 Q215 130 210 155 Q200 145 190 155 Q185 130 200 110" fill="white" stroke="#1a1a1a" stroke-width="0.8" transform="rotate(300 200 200)"/>
    <path id="mid-petal-12" d="M200 100 Q230 130 220 170 Q200 150 180 170 Q170 130 200 100" fill="white" stroke="#1a1a1a" stroke-width="1" transform="rotate(330 200 200)"/>
    <path id="mid-petal-inner-12" d="M200 110 Q215 130 210 155 Q200 145 190 155 Q185 130 200 110" fill="white" stroke="#1a1a1a" stroke-width="0.8" transform="rotate(330 200 200)"/>
  </g>
  
  <!-- Inner circle details -->
  <circle id="inner-ring-1" cx="200" cy="200" r="55" fill="white" stroke="#1a1a1a" stroke-width="1"/>
  <circle id="inner-ring-2" cx="200" cy="200" r="50" fill="white" stroke="#1a1a1a" stroke-width="0.8"/>
  
  <!-- Inner lotus petals - 8 -->
  <g id="inner-petals">
    <path id="inner-petal-1" d="M200 150 Q215 165 210 190 Q200 180 190 190 Q185 165 200 150" fill="white" stroke="#1a1a1a" stroke-width="1"/>
    <path id="inner-petal-2" d="M200 150 Q215 165 210 190 Q200 180 190 190 Q185 165 200 150" fill="white" stroke="#1a1a1a" stroke-width="1" transform="rotate(45 200 200)"/>
    <path id="inner-petal-3" d="M200 150 Q215 165 210 190 Q200 180 190 190 Q185 165 200 150" fill="white" stroke="#1a1a1a" stroke-width="1" transform="rotate(90 200 200)"/>
    <path id="inner-petal-4" d="M200 150 Q215 165 210 190 Q200 180 190 190 Q185 165 200 150" fill="white" stroke="#1a1a1a" stroke-width="1" transform="rotate(135 200 200)"/>
    <path id="inner-petal-5" d="M200 150 Q215 165 210 190 Q200 180 190 190 Q185 165 200 150" fill="white" stroke="#1a1a1a" stroke-width="1" transform="rotate(180 200 200)"/>
    <path id="inner-petal-6" d="M200 150 Q215 165 210 190 Q200 180 190 190 Q185 165 200 150" fill="white" stroke="#1a1a1a" stroke-width="1" transform="rotate(225 200 200)"/>
    <path id="inner-petal-7" d="M200 150 Q215 165 210 190 Q200 180 190 190 Q185 165 200 150" fill="white" stroke="#1a1a1a" stroke-width="1" transform="rotate(270 200 200)"/>
    <path id="inner-petal-8" d="M200 150 Q215 165 210 190 Q200 180 190 190 Q185 165 200 150" fill="white" stroke="#1a1a1a" stroke-width="1" transform="rotate(315 200 200)"/>
  </g>
  
  <!-- Center flower -->
  <circle id="center-outer" cx="200" cy="200" r="25" fill="white" stroke="#1a1a1a" stroke-width="1"/>
  <circle id="center-mid" cx="200" cy="200" r="18" fill="white" stroke="#1a1a1a" stroke-width="0.8"/>
  <circle id="center-inner" cx="200" cy="200" r="10" fill="white" stroke="#1a1a1a" stroke-width="0.8"/>
  <circle id="center-dot" cx="200" cy="200" r="4" fill="white" stroke="#1a1a1a" stroke-width="0.8"/>
  
  <!-- Decorative dots around center -->
  <circle id="dot-1" cx="200" cy="178" r="2" fill="white" stroke="#1a1a1a" stroke-width="0.5"/>
  <circle id="dot-2" cx="215" cy="185" r="2" fill="white" stroke="#1a1a1a" stroke-width="0.5"/>
  <circle id="dot-3" cx="222" cy="200" r="2" fill="white" stroke="#1a1a1a" stroke-width="0.5"/>
  <circle id="dot-4" cx="215" cy="215" r="2" fill="white" stroke="#1a1a1a" stroke-width="0.5"/>
  <circle id="dot-5" cx="200" cy="222" r="2" fill="white" stroke="#1a1a1a" stroke-width="0.5"/>
  <circle id="dot-6" cx="185" cy="215" r="2" fill="white" stroke="#1a1a1a" stroke-width="0.5"/>
  <circle id="dot-7" cx="178" cy="200" r="2" fill="white" stroke="#1a1a1a" stroke-width="0.5"/>
  <circle id="dot-8" cx="185" cy="185" r="2" fill="white" stroke="#1a1a1a" stroke-width="0.5"/>
</svg>