<svg viewBox="0 0 400 400" xmlns="http://www.w3.org/2000/svg">
  <!-- Sunflower - Botanical Style -->
  
  <!-- Back Petals Layer -->
  <path id="petal-back-1" d="M200 90 Q220 50 200 20 Q180 50 200 90" fill="white" stroke="#1a1a1a" stroke-width="1.2"/>
  <path id="petal-back-2" d="M155 100 Q130 70 100 70 Q120 100 155 100" fill="white" stroke="#1a1a1a" stroke-width="1.2"/>
  <path id="petal-back-3" d="M100 145 Q60 130 40 150 Q65 165 100 145" fill="white" stroke="#1a1a1a" stroke-width="1.2"/>
  <path id="petal-back-4" d="M100 200 Q55 195 35 215 Q60 230 100 200" fill="white" stroke="#1a1a1a" stroke-width="1.2"/>
  <path id="petal-back-5" d="M115 255 Q80 275 75 310 Q110 295 115 255" fill="white" stroke="#1a1a1a" stroke-width="1.2"/>
  <path id="petal-back-6" d="M285 255 Q320 275 325 310 Q290 295 285 255" fill="white" stroke="#1a1a1a" stroke-width="1.2"/>
  <path id="petal-back-7" d="M300 200 Q345 195 365 215 Q340 230 300 200" fill="white" stroke="#1a1a1a" stroke-width="1.2"/>
  <path id="petal-back-8" d="M300 145 Q340 130 360 150 Q335 165 300 145" fill="white" stroke="#1a1a1a" stroke-width="1.2"/>
  <path id="petal-back-9" d="M245 100 Q270 70 300 70 Q280 100 245 100" fill="white" stroke="#1a1a1a" stroke-width="1.2"/>
  
  <!-- Front Petals Layer -->
  <path id="petal-1" d="M200 105 Q215 65 200 35 Q185 65 200 105" fill="white" stroke="#1a1a1a" stroke-width="1.5"/>
  <path id="petal-2" d="M167 112 Q140 85 115 90 Q135 115 167 112" fill="white" stroke="#1a1a1a" stroke-width="1.5"/>
  <path id="petal-3" d="M118 155 Q80 145 65 165 Q90 180 118 155" fill="white" stroke="#1a1a1a" stroke-width="1.5"/>
  <path id="petal-4" d="M110 200 Q70 200 55 225 Q85 235 110 200" fill="white" stroke="#1a1a1a" stroke-width="1.5"/>
  <path id="petal-5" d="M125 245 Q95 270 100 300 Q130 285 125 245" fill="white" stroke="#1a1a1a" stroke-width="1.5"/>
  <path id="petal-6" d="M160 275 Q145 310 165 335 Q185 310 160 275" fill="white" stroke="#1a1a1a" stroke-width="1.5"/>
  <path id="petal-7" d="M240 275 Q255 310 235 335 Q215 310 240 275" fill="white" stroke="#1a1a1a" stroke-width="1.5"/>
  <path id="petal-8" d="M275 245 Q305 270 300 300 Q270 285 275 245" fill="white" stroke="#1a1a1a" stroke-width="1.5"/>
  <path id="petal-9" d="M290 200 Q330 200 345 225 Q315 235 290 200" fill="white" stroke="#1a1a1a" stroke-width="1.5"/>
  <path id="petal-10" d="M282 155 Q320 145 335 165 Q310 180 282 155" fill="white" stroke="#1a1a1a" stroke-width="1.5"/>
  <path id="petal-11" d="M233 112 Q260 85 285 90 Q265 115 233 112" fill="white" stroke="#1a1a1a" stroke-width="1.5"/>
  
  <!-- Center (Seeds area) -->
  <circle id="center-outer" cx="200" cy="190" r="65" fill="white" stroke="#1a1a1a" stroke-width="2"/>
  <circle id="center-inner" cx="200" cy="190" r="50" fill="white" stroke="#1a1a1a" stroke-width="1.5"/>
  
  <!-- Seed pattern -->
  <circle cx="185" cy="175" r="4" fill="white" stroke="#1a1a1a" stroke-width="0.6"/>
  <circle cx="200" cy="170" r="4" fill="white" stroke="#1a1a1a" stroke-width="0.6"/>
  <circle cx="215" cy="175" r="4" fill="white" stroke="#1a1a1a" stroke-width="0.6"/>
  <circle cx="175" cy="190" r="4" fill="white" stroke="#1a1a1a" stroke-width="0.6"/>
  <circle cx="190" cy="188" r="4" fill="white" stroke="#1a1a1a" stroke-width="0.6"/>
  <circle cx="205" cy="185" r="4" fill="white" stroke="#1a1a1a" stroke-width="0.6"/>
  <circle cx="220" cy="190" r="4" fill="white" stroke="#1a1a1a" stroke-width="0.6"/>
  <circle cx="180" cy="205" r="4" fill="white" stroke="#1a1a1a" stroke-width="0.6"/>
  <circle cx="195" cy="202" r="4" fill="white" stroke="#1a1a1a" stroke-width="0.6"/>
  <circle cx="210" cy="200" r="4" fill="white" stroke="#1a1a1a" stroke-width="0.6"/>
  <circle cx="225" cy="205" r="4" fill="white" stroke="#1a1a1a" stroke-width="0.6"/>
  <circle cx="200" cy="215" r="4" fill="white" stroke="#1a1a1a" stroke-width="0.6"/>
  
  <!-- Stem -->
  <path id="stem" d="M200 255 Q195 300 200 350 Q205 380 200 395" fill="none" stroke="#1a1a1a" stroke-width="4" stroke-linecap="round"/>
  
  <!-- Leaves -->
  <path id="leaf-left" d="M195 310 Q140 290 100 310 Q110 340 150 345 Q175 345 195 325" fill="white" stroke="#1a1a1a" stroke-width="1.5"/>
  <path d="M195 315 Q150 315 115 325" fill="none" stroke="#1a1a1a" stroke-width="0.8"/>
  
  <path id="leaf-right" d="M205 350 Q260 340 300 360 Q290 380 250 380 Q220 375 205 360" fill="white" stroke="#1a1a1a" stroke-width="1.5"/>
  <path d="M205 358 Q250 360 285 370" fill="none" stroke="#1a1a1a" stroke-width="0.8"/>
  
  <!-- Bee -->
  <ellipse id="bee-body" cx="320" cy="130" rx="12" ry="8" fill="white" stroke="#1a1a1a" stroke-width="1"/>
  <circle id="bee-head" cx="335" cy="130" r="6" fill="white" stroke="#1a1a1a" stroke-width="1"/>
  <path d="M315 130 L325 130" fill="none" stroke="#1a1a1a" stroke-width="0.8"/>
  <path id="bee-wing" d="M320 122 Q325 110 332 115" fill="white" stroke="#1a1a1a" stroke-width="0.6"/>
  <path d="M338 126 Q345 120 342 128" fill="none" stroke="#1a1a1a" stroke-width="0.5"/>
</svg>