<svg viewBox="0 0 400 400" xmlns="http://www.w3.org/2000/svg">
  <!-- Zentangle Butterfly - Adult Coloring -->
  
  <!-- Body -->
  <ellipse id="body" cx="200" cy="200" rx="15" ry="80" fill="white" stroke="#1a1a1a" stroke-width="1.5"/>
  <ellipse id="body-inner" cx="200" cy="200" rx="8" ry="70" fill="white" stroke="#1a1a1a" stroke-width="0.5"/>
  
  <!-- Body segments -->
  <line x1="185" y1="140" x2="215" y2="140" stroke="#1a1a1a" stroke-width="0.8"/>
  <line x1="185" y1="160" x2="215" y2="160" stroke="#1a1a1a" stroke-width="0.8"/>
  <line x1="185" y1="180" x2="215" y2="180" stroke="#1a1a1a" stroke-width="0.8"/>
  <line x1="185" y1="200" x2="215" y2="200" stroke="#1a1a1a" stroke-width="0.8"/>
  <line x1="185" y1="220" x2="215" y2="220" stroke="#1a1a1a" stroke-width="0.8"/>
  <line x1="185" y1="240" x2="215" y2="240" stroke="#1a1a1a" stroke-width="0.8"/>
  <line x1="185" y1="260" x2="215" y2="260" stroke="#1a1a1a" stroke-width="0.8"/>
  
  <!-- Head -->
  <circle id="head" cx="200" cy="110" r="18" fill="white" stroke="#1a1a1a" stroke-width="1.5"/>
  <circle id="eye-l" cx="193" cy="108" r="5" fill="white" stroke="#1a1a1a" stroke-width="0.5"/>
  <circle id="eye-r" cx="207" cy="108" r="5" fill="white" stroke="#1a1a1a" stroke-width="0.5"/>
  
  <!-- Antennae -->
  <path id="antenna-l" d="M190 95 Q170 60 155 50" fill="none" stroke="#1a1a1a" stroke-width="1"/>
  <circle id="antenna-tip-l" cx="155" cy="50" r="5" fill="white" stroke="#1a1a1a" stroke-width="0.8"/>
  <path id="antenna-r" d="M210 95 Q230 60 245 50" fill="none" stroke="#1a1a1a" stroke-width="1"/>
  <circle id="antenna-tip-r" cx="245" cy="50" r="5" fill="white" stroke="#1a1a1a" stroke-width="0.8"/>
  
  <!-- Left upper wing -->
  <path id="wing-ul" d="M185 155 Q80 80 50 150 Q30 200 60 250 Q100 290 185 240" fill="white" stroke="#1a1a1a" stroke-width="1.5"/>
  
  <!-- Left upper wing patterns -->
  <g id="wing-ul-patterns">
    <!-- Outer swirls -->
    <path id="ul-swirl-1" d="M80 130 Q65 140 70 155 Q75 170 90 165 Q105 160 100 145 Q95 130 80 130" fill="white" stroke="#1a1a1a" stroke-width="0.6"/>
    <path id="ul-swirl-1-inner" d="M82 140 Q75 145 78 153 Q81 161 88 158 Q95 155 92 147 Q89 139 82 140" fill="white" stroke="#1a1a1a" stroke-width="0.4"/>
    
    <path id="ul-swirl-2" d="M100 170 Q85 180 90 195 Q95 210 110 205 Q125 200 120 185 Q115 170 100 170" fill="white" stroke="#1a1a1a" stroke-width="0.6"/>
    <path id="ul-swirl-2-inner" d="M102 180 Q95 185 98 193 Q101 201 108 198 Q115 195 112 187 Q109 179 102 180" fill="white" stroke="#1a1a1a" stroke-width="0.4"/>
    
    <!-- Scale patterns -->
    <path id="ul-scale-1" d="M130 150 Q140 140 150 150" fill="none" stroke="#1a1a1a" stroke-width="0.5"/>
    <path id="ul-scale-2" d="M140 160 Q150 150 160 160" fill="none" stroke="#1a1a1a" stroke-width="0.5"/>
    <path id="ul-scale-3" d="M125 165 Q135 155 145 165" fill="none" stroke="#1a1a1a" stroke-width="0.5"/>
    <path id="ul-scale-4" d="M135 175 Q145 165 155 175" fill="none" stroke="#1a1a1a" stroke-width="0.5"/>
    
    <!-- Circles -->
    <circle id="ul-circ-1" cx="70" cy="200" r="12" fill="white" stroke="#1a1a1a" stroke-width="0.6"/>
    <circle id="ul-circ-1-inner" cx="70" cy="200" r="7" fill="white" stroke="#1a1a1a" stroke-width="0.4"/>
    <circle id="ul-circ-1-core" cx="70" cy="200" r="3" fill="white" stroke="#1a1a1a" stroke-width="0.3"/>
    
    <circle id="ul-circ-2" cx="95" cy="230" r="10" fill="white" stroke="#1a1a1a" stroke-width="0.6"/>
    <circle id="ul-circ-2-inner" cx="95" cy="230" r="6" fill="white" stroke="#1a1a1a" stroke-width="0.4"/>
    
    <!-- Dots -->
    <circle id="ul-dot-1" cx="120" cy="200" r="4" fill="white" stroke="#1a1a1a" stroke-width="0.4"/>
    <circle id="ul-dot-2" cx="140" cy="190" r="3" fill="white" stroke="#1a1a1a" stroke-width="0.4"/>
    <circle id="ul-dot-3" cx="155" cy="205" r="4" fill="white" stroke="#1a1a1a" stroke-width="0.4"/>
    <circle id="ul-dot-4" cx="130" cy="220" r="3" fill="white" stroke="#1a1a1a" stroke-width="0.4"/>
  </g>
  
  <!-- Right upper wing -->
  <path id="wing-ur" d="M215 155 Q320 80 350 150 Q370 200 340 250 Q300 290 215 240" fill="white" stroke="#1a1a1a" stroke-width="1.5"/>
  
  <!-- Right upper wing patterns (mirrored) -->
  <g id="wing-ur-patterns">
    <path id="ur-swirl-1" d="M320 130 Q335 140 330 155 Q325 170 310 165 Q295 160 300 145 Q305 130 320 130" fill="white" stroke="#1a1a1a" stroke-width="0.6"/>
    <path id="ur-swirl-1-inner" d="M318 140 Q325 145 322 153 Q319 161 312 158 Q305 155 308 147 Q311 139 318 140" fill="white" stroke="#1a1a1a" stroke-width="0.4"/>
    
    <path id="ur-swirl-2" d="M300 170 Q315 180 310 195 Q305 210 290 205 Q275 200 280 185 Q285 170 300 170" fill="white" stroke="#1a1a1a" stroke-width="0.6"/>
    <path id="ur-swirl-2-inner" d="M298 180 Q305 185 302 193 Q299 201 292 198 Q285 195 288 187 Q291 179 298 180" fill="white" stroke="#1a1a1a" stroke-width="0.4"/>
    
    <path id="ur-scale-1" d="M270 150 Q260 140 250 150" fill="none" stroke="#1a1a1a" stroke-width="0.5"/>
    <path id="ur-scale-2" d="M260 160 Q250 150 240 160" fill="none" stroke="#1a1a1a" stroke-width="0.5"/>
    <path id="ur-scale-3" d="M275 165 Q265 155 255 165" fill="none" stroke="#1a1a1a" stroke-width="0.5"/>
    <path id="ur-scale-4" d="M265 175 Q255 165 245 175" fill="none" stroke="#1a1a1a" stroke-width="0.5"/>
    
    <circle id="ur-circ-1" cx="330" cy="200" r="12" fill="white" stroke="#1a1a1a" stroke-width="0.6"/>
    <circle id="ur-circ-1-inner" cx="330" cy="200" r="7" fill="white" stroke="#1a1a1a" stroke-width="0.4"/>
    <circle id="ur-circ-1-core" cx="330" cy="200" r="3" fill="white" stroke="#1a1a1a" stroke-width="0.3"/>
    
    <circle id="ur-circ-2" cx="305" cy="230" r="10" fill="white" stroke="#1a1a1a" stroke-width="0.6"/>
    <circle id="ur-circ-2-inner" cx="305" cy="230" r="6" fill="white" stroke="#1a1a1a" stroke-width="0.4"/>
    
    <circle id="ur-dot-1" cx="280" cy="200" r="4" fill="white" stroke="#1a1a1a" stroke-width="0.4"/>
    <circle id="ur-dot-2" cx="260" cy="190" r="3" fill="white" stroke="#1a1a1a" stroke-width="0.4"/>
    <circle id="ur-dot-3" cx="245" cy="205" r="4" fill="white" stroke="#1a1a1a" stroke-width="0.4"/>
    <circle id="ur-dot-4" cx="270" cy="220" r="3" fill="white" stroke="#1a1a1a" stroke-width="0.4"/>
  </g>
  
  <!-- Left lower wing -->
  <path id="wing-ll" d="M185 245 Q90 260 70 320 Q60 360 100 380 Q160 390 185 280" fill="white" stroke="#1a1a1a" stroke-width="1.5"/>
  
  <!-- Left lower wing patterns -->
  <g id="wing-ll-patterns">
    <ellipse id="ll-tear-1" cx="100" cy="300" rx="12" ry="18" fill="white" stroke="#1a1a1a" stroke-width="0.6"/>
    <ellipse id="ll-tear-1-inner" cx="100" cy="300" rx="6" ry="10" fill="white" stroke="#1a1a1a" stroke-width="0.4"/>
    
    <ellipse id="ll-tear-2" cx="120" cy="330" rx="10" ry="15" fill="white" stroke="#1a1a1a" stroke-width="0.6"/>
    <ellipse id="ll-tear-2-inner" cx="120" cy="330" rx="5" ry="8" fill="white" stroke="#1a1a1a" stroke-width="0.4"/>
    
    <ellipse id="ll-tear-3" cx="90" cy="350" rx="8" ry="12" fill="white" stroke="#1a1a1a" stroke-width="0.6"/>
    
    <circle id="ll-dot-1" cx="140" cy="280" r="5" fill="white" stroke="#1a1a1a" stroke-width="0.4"/>
    <circle id="ll-dot-2" cx="155" cy="300" r="4" fill="white" stroke="#1a1a1a" stroke-width="0.4"/>
    <circle id="ll-dot-3" cx="145" cy="350" r="5" fill="white" stroke="#1a1a1a" stroke-width="0.4"/>
    
    <path id="ll-line-1" d="M130 360 Q140 365 150 360" fill="none" stroke="#1a1a1a" stroke-width="0.4"/>
    <path id="ll-line-2" d="M115 370 Q130 375 145 370" fill="none" stroke="#1a1a1a" stroke-width="0.4"/>
  </g>
  
  <!-- Right lower wing -->
  <path id="wing-lr" d="M215 245 Q310 260 330 320 Q340 360 300 380 Q240 390 215 280" fill="white" stroke="#1a1a1a" stroke-width="1.5"/>
  
  <!-- Right lower wing patterns -->
  <g id="wing-lr-patterns">
    <ellipse id="lr-tear-1" cx="300" cy="300" rx="12" ry="18" fill="white" stroke="#1a1a1a" stroke-width="0.6"/>
    <ellipse id="lr-tear-1-inner" cx="300" cy="300" rx="6" ry="10" fill="white" stroke="#1a1a1a" stroke-width="0.4"/>
    
    <ellipse id="lr-tear-2" cx="280" cy="330" rx="10" ry="15" fill="white" stroke="#1a1a1a" stroke-width="0.6"/>
    <ellipse id="lr-tear-2-inner" cx="280" cy="330" rx="5" ry="8" fill="white" stroke="#1a1a1a" stroke-width="0.4"/>
    
    <ellipse id="lr-tear-3" cx="310" cy="350" rx="8" ry="12" fill="white" stroke="#1a1a1a" stroke-width="0.6"/>
    
    <circle id="lr-dot-1" cx="260" cy="280" r="5" fill="white" stroke="#1a1a1a" stroke-width="0.4"/>
    <circle id="lr-dot-2" cx="245" cy="300" r="4" fill="white" stroke="#1a1a1a" stroke-width="0.4"/>
    <circle id="lr-dot-3" cx="255" cy="350" r="5" fill="white" stroke="#1a1a1a" stroke-width="0.4"/>
    
    <path id="lr-line-1" d="M270 360 Q260 365 250 360" fill="none" stroke="#1a1a1a" stroke-width="0.4"/>
    <path id="lr-line-2" d="M285 370 Q270 375 255 370" fill="none" stroke="#1a1a1a" stroke-width="0.4"/>
  </g>
</svg>