<svg viewBox="0 0 400 400" xmlns="http://www.w3.org/2000/svg">
  <!-- Zentangle Elephant - Adult Coloring -->
  
  <!-- Main body -->
  <ellipse id="body" cx="200" cy="250" rx="130" ry="90" fill="white" stroke="#1a1a1a" stroke-width="2"/>
  
  <!-- Body zentangle patterns -->
  <g id="body-patterns">
    <!-- Paisley section -->
    <path id="bp-1" d="M150 220 Q140 200 155 195 Q170 190 175 210 Q180 230 165 235 Q150 240 150 220" fill="white" stroke="#1a1a1a" stroke-width="0.6"/>
    <path id="bp-1-i" d="M155 215 Q150 205 160 202 Q170 199 172 212 Q174 225 164 227 Q154 229 155 215" fill="white" stroke="#1a1a1a" stroke-width="0.4"/>
    <circle cx="162" cy="215" r="4" fill="white" stroke="#1a1a1a" stroke-width="0.3"/>
    
    <path id="bp-2" d="M200 250 Q190 230 205 225 Q220 220 225 240 Q230 260 215 265 Q200 270 200 250" fill="white" stroke="#1a1a1a" stroke-width="0.6"/>
    <path id="bp-2-i" d="M205 245 Q200 235 210 232 Q220 229 222 242 Q224 255 214 257 Q204 259 205 245" fill="white" stroke="#1a1a1a" stroke-width="0.4"/>
    
    <path id="bp-3" d="M250 230 Q240 210 255 205 Q270 200 275 220 Q280 240 265 245 Q250 250 250 230" fill="white" stroke="#1a1a1a" stroke-width="0.6"/>
    <path id="bp-3-i" d="M255 225 Q250 215 260 212 Q270 209 272 222 Q274 235 264 237 Q254 239 255 225" fill="white" stroke="#1a1a1a" stroke-width="0.4"/>
    
    <!-- Circles cluster -->
    <circle id="bc-1" cx="130" cy="260" r="12" fill="white" stroke="#1a1a1a" stroke-width="0.6"/>
    <circle id="bc-1-i" cx="130" cy="260" r="7" fill="white" stroke="#1a1a1a" stroke-width="0.4"/>
    <circle id="bc-1-c" cx="130" cy="260" r="3" fill="white" stroke="#1a1a1a" stroke-width="0.3"/>
    
    <circle id="bc-2" cx="160" cy="280" r="10" fill="white" stroke="#1a1a1a" stroke-width="0.6"/>
    <circle id="bc-2-i" cx="160" cy="280" r="5" fill="white" stroke="#1a1a1a" stroke-width="0.4"/>
    
    <circle id="bc-3" cx="200" cy="295" r="12" fill="white" stroke="#1a1a1a" stroke-width="0.6"/>
    <circle id="bc-3-i" cx="200" cy="295" r="7" fill="white" stroke="#1a1a1a" stroke-width="0.4"/>
    <circle id="bc-3-c" cx="200" cy="295" r="3" fill="white" stroke="#1a1a1a" stroke-width="0.3"/>
    
    <circle id="bc-4" cx="240" cy="285" r="10" fill="white" stroke="#1a1a1a" stroke-width="0.6"/>
    <circle id="bc-4-i" cx="240" cy="285" r="5" fill="white" stroke="#1a1a1a" stroke-width="0.4"/>
    
    <circle id="bc-5" cx="275" cy="265" r="11" fill="white" stroke="#1a1a1a" stroke-width="0.6"/>
    <circle id="bc-5-i" cx="275" cy="265" r="6" fill="white" stroke="#1a1a1a" stroke-width="0.4"/>
    
    <!-- Scale pattern -->
    <path id="bs-1" d="M290 230 Q305 220 320 230" fill="none" stroke="#1a1a1a" stroke-width="0.5"/>
    <path id="bs-2" d="M285 245 Q300 235 315 245" fill="none" stroke="#1a1a1a" stroke-width="0.5"/>
    <path id="bs-3" d="M295 245 Q310 235 325 245" fill="none" stroke="#1a1a1a" stroke-width="0.5"/>
    <path id="bs-4" d="M280 260 Q295 250 310 260" fill="none" stroke="#1a1a1a" stroke-width="0.5"/>
    <path id="bs-5" d="M290 260 Q305 250 320 260" fill="none" stroke="#1a1a1a" stroke-width="0.5"/>
  </g>
  
  <!-- Head -->
  <ellipse id="head" cx="100" cy="150" rx="70" ry="60" fill="white" stroke="#1a1a1a" stroke-width="2"/>
  
  <!-- Head patterns -->
  <g id="head-patterns">
    <circle id="hp-1" cx="80" cy="130" r="10" fill="white" stroke="#1a1a1a" stroke-width="0.6"/>
    <circle id="hp-1-i" cx="80" cy="130" r="5" fill="white" stroke="#1a1a1a" stroke-width="0.4"/>
    
    <circle id="hp-2" cx="110" cy="120" r="8" fill="white" stroke="#1a1a1a" stroke-width="0.6"/>
    <circle id="hp-2-i" cx="110" cy="120" r="4" fill="white" stroke="#1a1a1a" stroke-width="0.4"/>
    
    <circle id="hp-3" cx="140" cy="135" r="10" fill="white" stroke="#1a1a1a" stroke-width="0.6"/>
    <circle id="hp-3-i" cx="140" cy="135" r="5" fill="white" stroke="#1a1a1a" stroke-width="0.4"/>
    
    <!-- Dots -->
    <circle cx="65" cy="155" r="3" fill="white" stroke="#1a1a1a" stroke-width="0.4"/>
    <circle cx="95" cy="150" r="3" fill="white" stroke="#1a1a1a" stroke-width="0.4"/>
    <circle cx="125" cy="155" r="3" fill="white" stroke="#1a1a1a" stroke-width="0.4"/>
    <circle cx="150" cy="160" r="3" fill="white" stroke="#1a1a1a" stroke-width="0.4"/>
  </g>
  
  <!-- Ear -->
  <path id="ear" d="M30 100 Q5 130 20 180 Q40 200 80 190" fill="white" stroke="#1a1a1a" stroke-width="1.5"/>
  <path id="ear-inner" d="M38 110 Q18 135 30 175 Q45 190 75 183" fill="white" stroke="#1a1a1a" stroke-width="0.8"/>
  
  <!-- Ear patterns -->
  <g id="ear-patterns">
    <path id="ep-1" d="M35 130 Q45 125 50 135" fill="none" stroke="#1a1a1a" stroke-width="0.5"/>
    <path id="ep-2" d="M30 145 Q40 140 50 150" fill="none" stroke="#1a1a1a" stroke-width="0.5"/>
    <path id="ep-3" d="M35 160 Q45 155 55 165" fill="none" stroke="#1a1a1a" stroke-width="0.5"/>
    <circle cx="45" cy="145" r="4" fill="white" stroke="#1a1a1a" stroke-width="0.4"/>
    <circle cx="50" cy="165" r="3" fill="white" stroke="#1a1a1a" stroke-width="0.4"/>
  </g>
  
  <!-- Eye -->
  <circle id="eye-outer" cx="120" cy="140" r="18" fill="white" stroke="#1a1a1a" stroke-width="1"/>
  <circle id="eye-mid" cx="120" cy="140" r="12" fill="white" stroke="#1a1a1a" stroke-width="0.8"/>
  <circle id="eye-inner" cx="120" cy="140" r="6" fill="white" stroke="#1a1a1a" stroke-width="0.5"/>
  
  <!-- Trunk -->
  <path id="trunk" d="M130 180 Q160 200 150 250 Q140 300 130 350 Q120 380 100 390" fill="white" stroke="#1a1a1a" stroke-width="2"/>
  <path id="trunk-inner" d="M120 185 Q145 205 138 250 Q130 295 122 340 Q115 365 100 375" fill="white" stroke="#1a1a1a" stroke-width="1"/>
  
  <!-- Trunk patterns -->
  <g id="trunk-patterns">
    <path id="tp-1" d="M125 200 Q135 198 140 205" fill="none" stroke="#1a1a1a" stroke-width="0.5"/>
    <path id="tp-2" d="M125 220 Q135 218 143 225" fill="none" stroke="#1a1a1a" stroke-width="0.5"/>
    <path id="tp-3" d="M122 240 Q132 238 140 245" fill="none" stroke="#1a1a1a" stroke-width="0.5"/>
    <path id="tp-4" d="M120 260 Q130 258 137 265" fill="none" stroke="#1a1a1a" stroke-width="0.5"/>
    <path id="tp-5" d="M118 280 Q128 278 134 285" fill="none" stroke="#1a1a1a" stroke-width="0.5"/>
    <path id="tp-6" d="M115 300 Q125 298 130 305" fill="none" stroke="#1a1a1a" stroke-width="0.5"/>
    <path id="tp-7" d="M112 320 Q122 318 127 325" fill="none" stroke="#1a1a1a" stroke-width="0.5"/>
    <path id="tp-8" d="M108 340 Q118 338 122 345" fill="none" stroke="#1a1a1a" stroke-width="0.5"/>
    <path id="tp-9" d="M105 360 Q115 358 118 365" fill="none" stroke="#1a1a1a" stroke-width="0.5"/>
  </g>
  
  <!-- Tusks -->
  <path id="tusk" d="M135 195 Q150 190 160 170 Q175 150 180 140" fill="white" stroke="#1a1a1a" stroke-width="1.5"/>
  <path id="tusk-detail" d="M142 188 Q152 185 160 175" fill="none" stroke="#1a1a1a" stroke-width="0.4"/>
  
  <!-- Legs -->
  <g id="legs">
    <!-- Front left leg -->
    <rect id="leg-fl" x="130" y="310" width="35" height="70" rx="10" fill="white" stroke="#1a1a1a" stroke-width="1.5"/>
    <path id="leg-fl-p1" d="M135 330 Q145 325 160 330" fill="none" stroke="#1a1a1a" stroke-width="0.5"/>
    <path id="leg-fl-p2" d="M135 350 Q145 345 160 350" fill="none" stroke="#1a1a1a" stroke-width="0.5"/>
    <path id="leg-fl-p3" d="M135 370 Q145 365 160 370" fill="none" stroke="#1a1a1a" stroke-width="0.5"/>
    
    <!-- Front right leg -->
    <rect id="leg-fr" x="180" y="315" width="35" height="65" rx="10" fill="white" stroke="#1a1a1a" stroke-width="1.5"/>
    <path id="leg-fr-p1" d="M185 335 Q195 330 210 335" fill="none" stroke="#1a1a1a" stroke-width="0.5"/>
    <path id="leg-fr-p2" d="M185 355 Q195 350 210 355" fill="none" stroke="#1a1a1a" stroke-width="0.5"/>
    
    <!-- Back left leg -->
    <rect id="leg-bl" x="230" y="315" width="35" height="65" rx="10" fill="white" stroke="#1a1a1a" stroke-width="1.5"/>
    <path id="leg-bl-p1" d="M235 335 Q245 330 260 335" fill="none" stroke="#1a1a1a" stroke-width="0.5"/>
    <path id="leg-bl-p2" d="M235 355 Q245 350 260 355" fill="none" stroke="#1a1a1a" stroke-width="0.5"/>
    
    <!-- Back right leg -->
    <rect id="leg-br" x="280" y="305" width="35" height="75" rx="10" fill="white" stroke="#1a1a1a" stroke-width="1.5"/>
    <path id="leg-br-p1" d="M285 325 Q295 320 310 325" fill="none" stroke="#1a1a1a" stroke-width="0.5"/>
    <path id="leg-br-p2" d="M285 345 Q295 340 310 345" fill="none" stroke="#1a1a1a" stroke-width="0.5"/>
    <path id="leg-br-p3" d="M285 365 Q295 360 310 365" fill="none" stroke="#1a1a1a" stroke-width="0.5"/>
  </g>
  
  <!-- Tail -->
  <path id="tail" d="M330 240 Q350 235 360 250 Q365 265 355 275" fill="none" stroke="#1a1a1a" stroke-width="1.5"/>
  <ellipse id="tail-tuft" cx="355" cy="282" rx="8" ry="12" fill="white" stroke="#1a1a1a" stroke-width="0.8"/>
  
  <!-- Decorative crown/headdress -->
  <g id="crown">
    <path id="crown-base" d="M50 95 Q80 85 100 75 Q120 65 140 60 Q120 35 100 25 Q80 35 60 55 Q45 70 50 95" fill="white" stroke="#1a1a1a" stroke-width="1"/>
    <circle cx="100" cy="45" r="8" fill="white" stroke="#1a1a1a" stroke-width="0.6"/>
    <circle cx="100" cy="45" r="4" fill="white" stroke="#1a1a1a" stroke-width="0.4"/>
    <circle cx="75" cy="55" r="6" fill="white" stroke="#1a1a1a" stroke-width="0.5"/>
    <circle cx="125" cy="55" r="6" fill="white" stroke="#1a1a1a" stroke-width="0.5"/>
    <path id="crown-line-1" d="M65 70 Q75 65 85 70" fill="none" stroke="#1a1a1a" stroke-width="0.4"/>
    <path id="crown-line-2" d="M115 70 Q125 65 135 70" fill="none" stroke="#1a1a1a" stroke-width="0.4"/>
  </g>
</svg>