<svg viewBox="0 0 400 400" xmlns="http://www.w3.org/2000/svg">
  <!-- Abstract Doodle Zentangle - Adult Coloring -->
  
  <!-- Outer border frame -->
  <rect id="frame" x="20" y="20" width="360" height="360" fill="white" stroke="#1a1a1a" stroke-width="2"/>
  <rect id="frame-inner" x="30" y="30" width="340" height="340" fill="white" stroke="#1a1a1a" stroke-width="1"/>
  
  <!-- Section dividers creating abstract shapes -->
  <path id="div-1" d="M30 80 Q120 100 200 70 Q280 40 370 100" fill="none" stroke="#1a1a1a" stroke-width="1"/>
  <path id="div-2" d="M30 160 Q100 130 160 160 Q220 190 300 150 Q350 130 370 180" fill="none" stroke="#1a1a1a" stroke-width="1"/>
  <path id="div-3" d="M30 250 Q80 230 140 260 Q200 290 260 250 Q320 210 370 260" fill="none" stroke="#1a1a1a" stroke-width="1"/>
  <path id="div-4" d="M30 320 Q100 300 180 330 Q260 360 370 310" fill="none" stroke="#1a1a1a" stroke-width="1"/>
  <path id="div-v1" d="M100 30 Q120 100 90 180 Q60 260 110 370" fill="none" stroke="#1a1a1a" stroke-width="1"/>
  <path id="div-v2" d="M200 30 Q180 120 220 200 Q260 280 200 370" fill="none" stroke="#1a1a1a" stroke-width="1"/>
  <path id="div-v3" d="M300 30 Q320 100 280 180 Q240 260 310 370" fill="none" stroke="#1a1a1a" stroke-width="1"/>
  
  <!-- Section 1: Circles pattern -->
  <g id="section-circles">
    <circle id="s1-c1" cx="60" cy="50" r="12" fill="white" stroke="#1a1a1a" stroke-width="0.6"/>
    <circle id="s1-c1-i" cx="60" cy="50" r="7" fill="white" stroke="#1a1a1a" stroke-width="0.4"/>
    <circle id="s1-c1-c" cx="60" cy="50" r="3" fill="white" stroke="#1a1a1a" stroke-width="0.3"/>
    
    <circle id="s1-c2" cx="85" cy="65" r="8" fill="white" stroke="#1a1a1a" stroke-width="0.6"/>
    <circle id="s1-c2-i" cx="85" cy="65" r="4" fill="white" stroke="#1a1a1a" stroke-width="0.4"/>
  </g>
  
  <!-- Section 2: Waves pattern -->
  <g id="section-waves">
    <path id="wave-1" d="M130 50 Q145 40 160 50 Q175 60 190 50" fill="none" stroke="#1a1a1a" stroke-width="0.5"/>
    <path id="wave-2" d="M130 60 Q145 50 160 60 Q175 70 190 60" fill="none" stroke="#1a1a1a" stroke-width="0.5"/>
    <path id="wave-3" d="M130 70 Q145 60 160 70 Q175 80 190 70" fill="none" stroke="#1a1a1a" stroke-width="0.5"/>
  </g>
  
  <!-- Section 3: Crosshatch -->
  <g id="section-crosshatch">
    <line x1="220" y1="40" x2="240" y2="70" stroke="#1a1a1a" stroke-width="0.4"/>
    <line x1="230" y1="40" x2="250" y2="70" stroke="#1a1a1a" stroke-width="0.4"/>
    <line x1="240" y1="40" x2="260" y2="70" stroke="#1a1a1a" stroke-width="0.4"/>
    <line x1="250" y1="40" x2="270" y2="70" stroke="#1a1a1a" stroke-width="0.4"/>
    <line x1="220" y1="65" x2="270" y2="45" stroke="#1a1a1a" stroke-width="0.4"/>
    <line x1="220" y1="55" x2="270" y2="55" stroke="#1a1a1a" stroke-width="0.4"/>
  </g>
  
  <!-- Section 4: Spirals -->
  <g id="section-spirals">
    <path id="spiral-1" d="M320 50 Q340 50 340 65 Q340 80 325 80 Q310 80 310 65 Q310 55 320 55" fill="none" stroke="#1a1a1a" stroke-width="0.5"/>
    <path id="spiral-2" d="M345 70 Q360 70 360 82 Q360 94 348 94 Q336 94 336 82 Q336 74 345 74" fill="none" stroke="#1a1a1a" stroke-width="0.5"/>
  </g>
  
  <!-- Section 5: Dots cluster -->
  <g id="section-dots">
    <circle cx="50" cy="110" r="3" fill="white" stroke="#1a1a1a" stroke-width="0.4"/>
    <circle cx="60" cy="105" r="2" fill="white" stroke="#1a1a1a" stroke-width="0.4"/>
    <circle cx="55" cy="120" r="2.5" fill="white" stroke="#1a1a1a" stroke-width="0.4"/>
    <circle cx="70" cy="115" r="3" fill="white" stroke="#1a1a1a" stroke-width="0.4"/>
    <circle cx="45" cy="130" r="2" fill="white" stroke="#1a1a1a" stroke-width="0.4"/>
    <circle cx="65" cy="128" r="2.5" fill="white" stroke="#1a1a1a" stroke-width="0.4"/>
    <circle cx="80" cy="125" r="2" fill="white" stroke="#1a1a1a" stroke-width="0.4"/>
  </g>
  
  <!-- Section 6: Fish scales -->
  <g id="section-scales">
    <path id="sc-1" d="M100 100 Q115 90 130 100" fill="none" stroke="#1a1a1a" stroke-width="0.5"/>
    <path id="sc-2" d="M95 110 Q110 100 125 110" fill="none" stroke="#1a1a1a" stroke-width="0.5"/>
    <path id="sc-3" d="M105 110 Q120 100 135 110" fill="none" stroke="#1a1a1a" stroke-width="0.5"/>
    <path id="sc-4" d="M90 120 Q105 110 120 120" fill="none" stroke="#1a1a1a" stroke-width="0.5"/>
    <path id="sc-5" d="M100 120 Q115 110 130 120" fill="none" stroke="#1a1a1a" stroke-width="0.5"/>
    <path id="sc-6" d="M110 120 Q125 110 140 120" fill="none" stroke="#1a1a1a" stroke-width="0.5"/>
  </g>
  
  <!-- Section 7: Triangles -->
  <g id="section-triangles">
    <polygon id="tri-1" points="160,120 175,100 190,120" fill="white" stroke="#1a1a1a" stroke-width="0.5"/>
    <polygon id="tri-2" points="175,100 190,120 205,100" fill="white" stroke="#1a1a1a" stroke-width="0.5"/>
    <polygon id="tri-3" points="145,140 160,120 175,140" fill="white" stroke="#1a1a1a" stroke-width="0.5"/>
    <polygon id="tri-4" points="160,120 175,140 190,120" fill="white" stroke="#1a1a1a" stroke-width="0.5"/>
  </g>
  
  <!-- Section 8: Leaves -->
  <g id="section-leaves">
    <path id="leaf-1" d="M220 110 Q235 95 250 110 Q235 125 220 110" fill="white" stroke="#1a1a1a" stroke-width="0.5"/>
    <line x1="235" y1="100" x2="235" y2="120" stroke="#1a1a1a" stroke-width="0.3"/>
    <path id="leaf-2" d="M245 125 Q260 110 275 125 Q260 140 245 125" fill="white" stroke="#1a1a1a" stroke-width="0.5"/>
    <line x1="260" y1="115" x2="260" y2="135" stroke="#1a1a1a" stroke-width="0.3"/>
  </g>
  
  <!-- Section 9: Paisley -->
  <g id="section-paisley">
    <path id="pais-1" d="M300 130 Q285 110 305 100 Q325 90 330 110 Q335 130 315 135 Q295 140 300 130" fill="white" stroke="#1a1a1a" stroke-width="0.6"/>
    <path id="pais-1-i" d="M305 120 Q298 108 312 103 Q326 98 328 112 Q330 126 316 128 Q302 130 305 120" fill="white" stroke="#1a1a1a" stroke-width="0.4"/>
    <circle cx="315" cy="115" r="4" fill="white" stroke="#1a1a1a" stroke-width="0.3"/>
  </g>
  
  <!-- Section 10: Flowers -->
  <g id="section-flowers">
    <g id="flower-1">
      <circle cx="55" cy="200" r="10" fill="white" stroke="#1a1a1a" stroke-width="0.5"/>
      <circle cx="55" cy="200" r="5" fill="white" stroke="#1a1a1a" stroke-width="0.3"/>
      <ellipse cx="55" cy="187" rx="4" ry="7" fill="white" stroke="#1a1a1a" stroke-width="0.4"/>
      <ellipse cx="55" cy="213" rx="4" ry="7" fill="white" stroke="#1a1a1a" stroke-width="0.4"/>
      <ellipse cx="42" cy="200" rx="7" ry="4" fill="white" stroke="#1a1a1a" stroke-width="0.4"/>
      <ellipse cx="68" cy="200" rx="7" ry="4" fill="white" stroke="#1a1a1a" stroke-width="0.4"/>
    </g>
    <g id="flower-2">
      <circle cx="80" cy="230" r="8" fill="white" stroke="#1a1a1a" stroke-width="0.5"/>
      <circle cx="80" cy="230" r="4" fill="white" stroke="#1a1a1a" stroke-width="0.3"/>
      <ellipse cx="80" cy="220" rx="3" ry="5" fill="white" stroke="#1a1a1a" stroke-width="0.4"/>
      <ellipse cx="80" cy="240" rx="3" ry="5" fill="white" stroke="#1a1a1a" stroke-width="0.4"/>
      <ellipse cx="70" cy="230" rx="5" ry="3" fill="white" stroke="#1a1a1a" stroke-width="0.4"/>
      <ellipse cx="90" cy="230" rx="5" ry="3" fill="white" stroke="#1a1a1a" stroke-width="0.4"/>
    </g>
  </g>
  
  <!-- Section 11: Brick pattern -->
  <g id="section-bricks">
    <rect x="130" y="180" width="25" height="12" fill="white" stroke="#1a1a1a" stroke-width="0.4"/>
    <rect x="155" y="180" width="25" height="12" fill="white" stroke="#1a1a1a" stroke-width="0.4"/>
    <rect x="115" y="192" width="25" height="12" fill="white" stroke="#1a1a1a" stroke-width="0.4"/>
    <rect x="140" y="192" width="25" height="12" fill="white" stroke="#1a1a1a" stroke-width="0.4"/>
    <rect x="165" y="192" width="25" height="12" fill="white" stroke="#1a1a1a" stroke-width="0.4"/>
    <rect x="130" y="204" width="25" height="12" fill="white" stroke="#1a1a1a" stroke-width="0.4"/>
    <rect x="155" y="204" width="25" height="12" fill="white" stroke="#1a1a1a" stroke-width="0.4"/>
  </g>
  
  <!-- Section 12: Concentric circles -->
  <g id="section-concentric">
    <circle cx="260" cy="200" r="25" fill="white" stroke="#1a1a1a" stroke-width="0.6"/>
    <circle cx="260" cy="200" r="20" fill="white" stroke="#1a1a1a" stroke-width="0.5"/>
    <circle cx="260" cy="200" r="15" fill="white" stroke="#1a1a1a" stroke-width="0.4"/>
    <circle cx="260" cy="200" r="10" fill="white" stroke="#1a1a1a" stroke-width="0.3"/>
    <circle cx="260" cy="200" r="5" fill="white" stroke="#1a1a1a" stroke-width="0.3"/>
  </g>
  
  <!-- Section 13: Zigzag -->
  <g id="section-zigzag">
    <path id="zz-1" d="M310 170 L320 185 L330 170 L340 185 L350 170 L360 185" fill="none" stroke="#1a1a1a" stroke-width="0.5"/>
    <path id="zz-2" d="M310 185 L320 200 L330 185 L340 200 L350 185 L360 200" fill="none" stroke="#1a1a1a" stroke-width="0.5"/>
    <path id="zz-3" d="M310 200 L320 215 L330 200 L340 215 L350 200 L360 215" fill="none" stroke="#1a1a1a" stroke-width="0.5"/>
  </g>
  
  <!-- Section 14: Hearts -->
  <g id="section-hearts">
    <path id="heart-1" d="M50 290 Q55 280 60 285 Q65 280 70 290 Q70 300 60 310 Q50 300 50 290" fill="white" stroke="#1a1a1a" stroke-width="0.5"/>
    <path id="heart-2" d="M75 280 Q78 273 82 276 Q86 273 89 280 Q89 287 82 294 Q75 287 75 280" fill="white" stroke="#1a1a1a" stroke-width="0.5"/>
    <path id="heart-3" d="M55 315 Q58 308 62 311 Q66 308 69 315 Q69 322 62 329 Q55 322 55 315" fill="white" stroke="#1a1a1a" stroke-width="0.5"/>
  </g>
  
  <!-- Section 15: Swirls -->
  <g id="section-swirls">
    <path id="sw-1" d="M130 280 Q145 275 150 290 Q155 305 140 310 Q125 315 120 300 Q115 285 130 280" fill="none" stroke="#1a1a1a" stroke-width="0.5"/>
    <path id="sw-2" d="M160 290 Q175 285 180 300 Q185 315 170 320 Q155 325 150 310 Q145 295 160 290" fill="none" stroke="#1a1a1a" stroke-width="0.5"/>
  </g>
  
  <!-- Section 16: Stars -->
  <g id="section-stars">
    <polygon id="star-1" points="230,280 235,295 250,295 238,305 243,320 230,310 217,320 222,305 210,295 225,295" fill="white" stroke="#1a1a1a" stroke-width="0.5"/>
    <polygon id="star-2" points="270,300 273,310 283,310 275,317 278,327 270,320 262,327 265,317 257,310 267,310" fill="white" stroke="#1a1a1a" stroke-width="0.5"/>
  </g>
  
  <!-- Section 17: Teardrop -->
  <g id="section-teardrops">
    <ellipse cx="330" cy="280" rx="10" ry="15" fill="white" stroke="#1a1a1a" stroke-width="0.5"/>
    <ellipse cx="330" cy="280" rx="5" ry="8" fill="white" stroke="#1a1a1a" stroke-width="0.3"/>
    <ellipse cx="350" cy="300" rx="8" ry="12" fill="white" stroke="#1a1a1a" stroke-width="0.5"/>
    <ellipse cx="350" cy="300" rx="4" ry="6" fill="white" stroke="#1a1a1a" stroke-width="0.3"/>
  </g>
  
  <!-- Bottom row patterns -->
  <g id="bottom-pattern">
    <circle cx="60" cy="350" r="8" fill="white" stroke="#1a1a1a" stroke-width="0.5"/>
    <circle cx="60" cy="350" r="4" fill="white" stroke="#1a1a1a" stroke-width="0.3"/>
    
    <path id="bp-wave" d="M100 345 Q115 335 130 345 Q145 355 160 345 Q175 335 190 345" fill="none" stroke="#1a1a1a" stroke-width="0.5"/>
    <path id="bp-wave2" d="M100 355 Q115 345 130 355 Q145 365 160 355 Q175 345 190 355" fill="none" stroke="#1a1a1a" stroke-width="0.5"/>
    
    <polygon id="bp-tri" points="230,340 245,360 215,360" fill="white" stroke="#1a1a1a" stroke-width="0.5"/>
    <polygon id="bp-tri2" points="260,340 275,360 245,360" fill="white" stroke="#1a1a1a" stroke-width="0.5"/>
    
    <circle cx="310" cy="350" r="12" fill="white" stroke="#1a1a1a" stroke-width="0.5"/>
    <circle cx="310" cy="350" r="8" fill="white" stroke="#1a1a1a" stroke-width="0.4"/>
    <circle cx="310" cy="350" r="4" fill="white" stroke="#1a1a1a" stroke-width="0.3"/>
    
    <circle cx="350" cy="350" r="10" fill="white" stroke="#1a1a1a" stroke-width="0.5"/>
    <circle cx="350" cy="350" r="6" fill="white" stroke="#1a1a1a" stroke-width="0.4"/>
  </g>
</svg>